<?xml version="1.0" encoding="UTF-8" standalone="no"?>
<!-- Created with Inkscape (http://www.inkscape.org/) -->

<svg
   xmlns:dc="http://purl.org/dc/elements/1.1/"
   xmlns:cc="http://creativecommons.org/ns#"
   xmlns:rdf="http://www.w3.org/1999/02/22-rdf-syntax-ns#"
   xmlns:svg="http://www.w3.org/2000/svg"
   xmlns="http://www.w3.org/2000/svg"
   xmlns:sodipodi="http://sodipodi.sourceforge.net/DTD/sodipodi-0.dtd"
   xmlns:inkscape="http://www.inkscape.org/namespaces/inkscape"
   version="1.1"
   id="svg2"
   width="398.66602"
   height="396.44531"
   viewBox="0 0 398.66602 396.44531"
   sodipodi:docname="fai.svg"
   inkscape:version="0.92.1 r15371">
  <metadata
     id="metadata8">
    <rdf:RDF>
      <cc:Work
         rdf:about="">
        <dc:format>image/svg+xml</dc:format>
        <dc:type
           rdf:resource="http://purl.org/dc/dcmitype/StillImage" />
        <dc:title></dc:title>
      </cc:Work>
    </rdf:RDF>
  </metadata>
  <defs
     id="defs6" />
  <sodipodi:namedview
     pagecolor="#ffffff"
     bordercolor="#666666"
     borderopacity="1"
     objecttolerance="10"
     gridtolerance="10"
     guidetolerance="10"
     inkscape:pageopacity="0"
     inkscape:pageshadow="2"
     inkscape:window-width="1918"
     inkscape:window-height="1061"
     id="namedview4"
     showgrid="false"
     fit-margin-top="2"
     fit-margin-left="2"
     fit-margin-right="2"
     fit-margin-bottom="2"
     inkscape:zoom="1.6970562"
     inkscape:cx="159.97942"
     inkscape:cy="222.67694"
     inkscape:window-x="0"
     inkscape:window-y="17"
     inkscape:window-maximized="0"
     inkscape:current-layer="svg2" />
  <path
     inkscape:connector-curvature="0"
     style="opacity:1;fill:#0040ff;fill-opacity:1;stroke:none;stroke-width:2;stroke-linecap:butt;stroke-miterlimit:4;stroke-dasharray:none;stroke-opacity:1"
     d="M 198.66602,2 A 197.33333,196.66667 0 0 0 2,198.63282 197.33333,196.66667 0 0 0 181.64453,394.35742 l 6.00195,-63.70703 A 132.01938,132.01938 0 0 1 65.646484,199.13282 132.01938,132.01938 0 0 1 197.66602,67.113281 a 132.01938,132.01938 0 0 1 1,0.05078 z m -18.1211,94.796875 a 87.799095,87.799095 0 0 0 -87.798826,87.798835 87.799095,87.799095 0 0 0 87.798826,87.79882 87.799095,87.799095 0 0 0 87.79883,-87.79882 87.799095,87.799095 0 0 0 -87.79883,-87.798835 z"
     id="path4557" />
  <path
     inkscape:connector-curvature="0"
     style="opacity:1;fill:#aeaeae;fill-opacity:1;stroke:none;stroke-width:2.00014067;stroke-linecap:butt;stroke-miterlimit:4;stroke-dasharray:none;stroke-opacity:1"
     d="M 232.81836,4.8222657 222.75977,69.572266 a 132.01938,132.01938 0 0 1 52.36718,22.818359 L 311.73242,37.263672 A 197.33333,196.66667 0 0 0 232.81836,4.8222657 Z M 338.26562,59.103516 293.35156,108.26953 a 132.01938,132.01938 0 0 1 27.93164,44.73829 l 62.69922,-23.0586 a 197.33333,196.66667 0 0 0 -45.7168,-70.845704 z m 55.13672,104.871094 -65.58203,13.17774 a 132.01938,132.01938 0 0 1 1.86524,21.98047 132.01938,132.01938 0 0 1 -4.39649,33.13867 l 64.98438,15.42578 a 197.33333,196.66667 0 0 0 6.39258,-49.06445 197.33333,196.66667 0 0 0 -3.26368,-34.65821 z m -76.80078,92.08203 a 132.01938,132.01938 0 0 1 -31.74414,41.98633 l 40.41406,51.91016 a 197.33333,196.66667 0 0 0 52.92188,-68.78516 z m -51.38476,56.33399 a 132.01938,132.01938 0 0 1 -52.59375,17.75 l 3.87304,64.30469 a 197.33333,196.66667 0 0 0 80.42188,-25.03907 z"
     id="path4555" />
</svg>
