<?xml version="1.0" encoding="UTF-8" standalone="no"?>
<!-- Created with Inkscape (http://www.inkscape.org/) -->

<svg
   xmlns:dc="http://purl.org/dc/elements/1.1/"
   xmlns:cc="http://creativecommons.org/ns#"
   xmlns:rdf="http://www.w3.org/1999/02/22-rdf-syntax-ns#"
   xmlns:svg="http://www.w3.org/2000/svg"
   xmlns="http://www.w3.org/2000/svg"
   xmlns:xlink="http://www.w3.org/1999/xlink"
   xmlns:sodipodi="http://sodipodi.sourceforge.net/DTD/sodipodi-0.dtd"
   xmlns:inkscape="http://www.inkscape.org/namespaces/inkscape"
   width="62.177086mm"
   height="48.444019mm"
   viewBox="0 0 220.31251 171.65204"
   id="svg2"
   version="1.1"
   inkscape:version="0.92.1 r15371"
   sodipodi:docname="cancha605cm.svg">
  <defs
     id="defs4">
    <pattern
       inkscape:collect="always"
       xlink:href="#Azul"
       id="pattern5360"
       patternTransform="matrix(0.6625,0,0,0.74999993,344.90825,-422.12201)" />
    <pattern
       inkscape:collect="always"
       xlink:href="#Rojo"
       id="pattern5357"
       patternTransform="matrix(0.6625,0,0,0.74999993,47.437206,-422.12201)" />
    <marker
       inkscape:isstock="true"
       style="overflow:visible"
       id="marker5006"
       refX="0"
       refY="0"
       orient="auto"
       inkscape:stockid="Arrow2Lstart">
      <path
         transform="matrix(1.1,0,0,1.1,1.1,0)"
         d="M 8.7185878,4.0337352 -2.2072895,0.01601326 8.7185884,-4.0017078 c -1.7454984,2.3720609 -1.7354408,5.6174519 -6e-7,8.035443 z"
         style="fill:#000000;fill-opacity:1;fill-rule:evenodd;stroke:#000000;stroke-width:0.625;stroke-linejoin:round;stroke-opacity:1"
         id="path5008"
         inkscape:connector-curvature="0" />
    </marker>
    <marker
       inkscape:isstock="true"
       style="overflow:visible"
       id="marker4918"
       refX="0"
       refY="0"
       orient="auto"
       inkscape:stockid="Arrow2Lend">
      <path
         transform="matrix(-1.1,0,0,-1.1,-1.1,0)"
         d="M 8.7185878,4.0337352 -2.2072895,0.01601326 8.7185884,-4.0017078 c -1.7454984,2.3720609 -1.7354408,5.6174519 -6e-7,8.035443 z"
         style="fill:#000000;fill-opacity:1;fill-rule:evenodd;stroke:#000000;stroke-width:0.625;stroke-linejoin:round;stroke-opacity:1"
         id="path4920"
         inkscape:connector-curvature="0" />
    </marker>
    <marker
       inkscape:stockid="Arrow2Lend"
       orient="auto"
       refY="0"
       refX="0"
       id="Arrow2Lend"
       style="overflow:visible"
       inkscape:isstock="true"
       inkscape:collect="always">
      <path
         id="path4171"
         style="fill:#000000;fill-opacity:1;fill-rule:evenodd;stroke:#000000;stroke-width:0.625;stroke-linejoin:round;stroke-opacity:1"
         d="M 8.7185878,4.0337352 -2.2072895,0.01601326 8.7185884,-4.0017078 c -1.7454984,2.3720609 -1.7354408,5.6174519 -6e-7,8.035443 z"
         transform="matrix(-1.1,0,0,-1.1,-1.1,0)"
         inkscape:connector-curvature="0" />
    </marker>
    <marker
       inkscape:stockid="Arrow2Lstart"
       orient="auto"
       refY="0"
       refX="0"
       id="marker4684"
       style="overflow:visible"
       inkscape:isstock="true"
       inkscape:collect="always">
      <path
         id="path4686"
         style="fill:#000000;fill-opacity:1;fill-rule:evenodd;stroke:#000000;stroke-width:0.625;stroke-linejoin:round;stroke-opacity:1"
         d="M 8.7185878,4.0337352 -2.2072895,0.01601326 8.7185884,-4.0017078 c -1.7454984,2.3720609 -1.7354408,5.6174519 -6e-7,8.035443 z"
         transform="matrix(1.1,0,0,1.1,1.1,0)"
         inkscape:connector-curvature="0" />
    </marker>
    <pattern
       id="Rojo"
       patternTransform="translate(-30.283464,-780.28351)"
       height="400.00031"
       width="400.00026"
       patternUnits="userSpaceOnUse">
      <g
         transform="translate(30.283464,780.28351)"
         id="g4308">
        <rect
           y="-780.28351"
           x="-30.283464"
           height="400"
           width="400"
           id="rect4288"
           style="fill:#ff7878;fill-opacity:0.47058824;stroke:none;stroke-width:4;stroke-linejoin:round;stroke-miterlimit:4;stroke-dasharray:none;stroke-opacity:1" />
        <path
           id="rect4259"
           d="m -30.283203,-780.2832 0,50 350.000003,350 50,0 -400.000003,-400 z m 50,0 350.000003,350 0,-50 -300.000003,-300 -50,0 z m 100.000003,0 250,250 0,-50 -200,-200 -50,0 z m 100,0 150,150 0,-50 -100,-100 -50,0 z m 100,0 50,50 0,-50 -50,0 z m -350.000003,100 0,50 250.000003,250 50,0 -300.000003,-300 z m 0,100 0,50 150.000003,150 50,0 -200.000003,-200 z m 0,100 0,50 50,50 50,0 -100,-100 z"
           style="fill:#ff7878;fill-opacity:1;stroke:none;stroke-width:4;stroke-linejoin:round;stroke-miterlimit:4;stroke-dasharray:none;stroke-opacity:1" />
      </g>
    </pattern>
    <pattern
       id="Azul"
       patternTransform="translate(419.71651,-780.28351)"
       height="400.00029"
       width="400.00029"
       patternUnits="userSpaceOnUse">
      <g
         transform="translate(-419.71651,780.28351)"
         id="g4312">
        <rect
           transform="matrix(0,1,-1,0,0,0)"
           style="fill:#7878ff;fill-opacity:0.47058824;stroke:none;stroke-width:4;stroke-linejoin:round;stroke-miterlimit:4;stroke-dasharray:none;stroke-opacity:1"
           id="rect4298"
           width="400"
           height="400"
           x="-780.28351"
           y="-819.7168" />
        <path
           style="fill:#7878ff;fill-opacity:1;stroke:none;stroke-width:4;stroke-linejoin:round;stroke-miterlimit:4;stroke-dasharray:none;stroke-opacity:1"
           d="m 819.71651,-780.28322 -50,0 -350,350 0,50 400,-400 z m 0,50 -350,350 50,0 300,-300 0,-50 z m 0,100 -250,250 50,0 200,-200 0,-50 z m 0,100 -150,150 50,0 100,-100 0,-50 z m 0,100 -50,50 50,0 0,-50 z m -100,-350 -50,0 -250,250 0,50 300,-300 z m -100,0 -50,0 -150,150 0,50 200,-200 z m -100,0 -50,0 -50,50 0,50 100,-100 z"
           id="path4296" />
      </g>
    </pattern>
  </defs>
  <sodipodi:namedview
     id="base"
     pagecolor="#ffffff"
     bordercolor="#666666"
     borderopacity="1.0"
     inkscape:pageopacity="0.0"
     inkscape:pageshadow="2"
     inkscape:zoom="1.979899"
     inkscape:cx="62.271328"
     inkscape:cy="71.621521"
     inkscape:document-units="px"
     inkscape:current-layer="layer1"
     showgrid="true"
     inkscape:window-width="1364"
     inkscape:window-height="748"
     inkscape:window-x="0"
     inkscape:window-y="18"
     inkscape:window-maximized="0"
     fit-margin-top="0"
     fit-margin-left="0"
     fit-margin-right="0"
     fit-margin-bottom="0">
    <inkscape:grid
       type="xygrid"
       id="grid4140"
       spacingx="10"
       spacingy="10"
       empspacing="10"
       dotted="false"
       originx="-177.78355"
       originy="-378.34794" />
  </sodipodi:namedview>
  <metadata
     id="metadata7">
    <rdf:RDF>
      <cc:Work
         rdf:about="">
        <dc:format>image/svg+xml</dc:format>
        <dc:type
           rdf:resource="http://purl.org/dc/dcmitype/StillImage" />
        <dc:title></dc:title>
      </cc:Work>
    </rdf:RDF>
  </metadata>
  <g
     inkscape:label="Layer 1"
     inkscape:groupmode="layer"
     id="layer1"
     transform="translate(-177.78356,-502.36221)">
    <rect
       style="opacity:0.95999995;fill:url(#pattern5360);fill-opacity:1;stroke:none;stroke-width:0.70489365"
       id="rect6265"
       width="99.375"
       height="150"
       x="298.72107"
       y="502.36224" />
    <rect
       style="opacity:0.95999995;fill:url(#pattern5357);fill-opacity:1;stroke:none;stroke-width:0.70489365"
       id="rect6263"
       width="99.375"
       height="150"
       x="200"
       y="502.36224" />
    <rect
       style="opacity:0.95999995;fill:none;fill-opacity:1;stroke:#000000;stroke-width:1.40262401;stroke-linejoin:miter;stroke-miterlimit:4;stroke-dasharray:none;stroke-dashoffset:0;stroke-opacity:1"
       id="rect4142"
       width="197.34737"
       height="149.53487"
       x="199.70131"
       y="503.12601" />
    <path
       style="fill:none;fill-rule:evenodd;stroke:#000000;stroke-width:0.98451573;stroke-linecap:butt;stroke-linejoin:miter;stroke-miterlimit:4;stroke-dasharray:none;stroke-opacity:1;marker-start:url(#marker4684);marker-end:url(#Arrow2Lend)"
       d="M 190,504.79528 V 652.14262"
       id="path4144"
       inkscape:connector-curvature="0" />
    <text
       xml:space="preserve"
       style="font-style:normal;font-variant:normal;font-weight:normal;font-stretch:normal;line-height:0%;font-family:FreeSerif;-inkscape-font-specification:FreeSerif;text-align:center;letter-spacing:0px;word-spacing:0px;text-anchor:middle;fill:#000000;fill-opacity:1;stroke:none;stroke-width:1px;stroke-linecap:butt;stroke-linejoin:miter;stroke-opacity:1"
       x="297.26562"
       y="672.60425"
       id="text5112"><tspan
         sodipodi:role="line"
         id="tspan5114"
         x="297.26562"
         y="672.60425"
         style="font-size:10px;line-height:1.25">6,05m</tspan></text>
    <text
       id="text5260"
       y="-179.19356"
       x="586.10352"
       style="font-style:normal;font-variant:normal;font-weight:normal;font-stretch:normal;line-height:0%;font-family:FreeSerif;-inkscape-font-specification:FreeSerif;text-align:center;letter-spacing:0px;word-spacing:0px;text-anchor:middle;fill:#000000;fill-opacity:1;stroke:none;stroke-width:1px;stroke-linecap:butt;stroke-linejoin:miter;stroke-opacity:1"
       xml:space="preserve"
       transform="rotate(90)"><tspan
         y="-179.19356"
         x="586.10352"
         id="tspan5262"
         sodipodi:role="line"
         style="font-size:10px;line-height:1.25">4,05m</tspan></text>
    <path
       style="fill:none;fill-rule:evenodd;stroke:#000000;stroke-width:0.86602545px;stroke-linecap:butt;stroke-linejoin:miter;stroke-opacity:1"
       d="m 299.15407,502.36221 v 150"
       id="path5331"
       inkscape:connector-curvature="0" />
    <rect
       style="fill:url(#pattern4316);stroke:none"
       width="400.00027"
       height="400.00031"
       x="-98.478554"
       y="-76.308647"
       id="rect4321" />
    <rect
       style="fill:url(#pattern5039);stroke:none"
       width="400.00031"
       height="400.00031"
       x="351.52142"
       y="19.691353"
       id="rect5044" />
    <rect
       style="fill:url(#pattern5196);stroke:none"
       width="400"
       height="400"
       x="351.52145"
       y="-464.30859"
       id="rect5204" />
    <path
       style="fill:none;fill-rule:evenodd;stroke:#000000;stroke-width:0.87702119;stroke-linecap:butt;stroke-linejoin:miter;stroke-miterlimit:4;stroke-dasharray:none;stroke-opacity:1;marker-start:url(#marker5006);marker-end:url(#marker4918)"
       d="M 199.38067,662.36221 H 395.38759"
       id="path6579"
       inkscape:connector-curvature="0" />
    <g
       id="g6137"
       transform="translate(108.34821,54.339326)">
      <g
         id="g6115"
         transform="translate(-2.8673334,-2.8438719)">
        <path
           id="path6117"
           d="m 165.42801,525.86679 c 0,11.71965 -9.5008,21.22139 -21.22139,21.22139 -11.71966,0 -21.22139,-9.50174 -21.22139,-21.22139 0,-11.72059 9.50173,-21.22139 21.22139,-21.22139 11.72059,0 21.22139,9.50081 21.22139,21.22139"
           style="fill:none;stroke:#000000;stroke-width:0.23579322;stroke-linecap:butt;stroke-linejoin:miter;stroke-miterlimit:10;stroke-opacity:1"
           inkscape:connector-curvature="0" />
        <path
           id="path6119"
           d="m 129.35165,517.37823 h 29.70995 v 16.97711 h -29.70995 z m 0,0"
           style="fill:#505050;fill-opacity:1;fill-rule:evenodd;stroke:#7878ff;stroke-width:0.23579322;stroke-linecap:butt;stroke-linejoin:miter;stroke-miterlimit:10;stroke-opacity:1"
           inkscape:connector-curvature="0" />
        <path
           id="path6121"
           d="m 129.35165,517.37823 h 29.70995 v 16.97711 h -29.70995 z m 0,0"
           style="fill:none;stroke:#000000;stroke-width:0.23579322;stroke-linecap:butt;stroke-linejoin:miter;stroke-miterlimit:10;stroke-opacity:1"
           inkscape:connector-curvature="0" />
        <path
           id="path6123"
           d="m 151.9218,526.07863 c 0,4.14358 -3.3589,7.50325 -7.50247,7.50325 -4.14435,0 -7.50325,-3.35967 -7.50325,-7.50325 0,-4.14357 3.3589,-7.50324 7.50325,-7.50324 4.14357,0 7.50247,3.35967 7.50247,7.50324"
           style="fill:#787878;fill-opacity:1;stroke:#202020;stroke-width:0.19849445;stroke-linecap:butt;stroke-linejoin:miter;stroke-miterlimit:10;stroke-opacity:1"
           inkscape:connector-curvature="0" />
        <path
           id="path6125"
           d="m 149.72475,525.86679 c 0,2.92991 -2.37544,5.30535 -5.30535,5.30535 -2.93083,0 -5.30534,-2.37544 -5.30534,-5.30535 0,-2.92992 2.37451,-5.30535 5.30534,-5.30535 2.92991,0 5.30535,2.37543 5.30535,5.30535"
           style="fill:#ffffff;fill-opacity:1;fill-rule:evenodd;stroke:#7878ff;stroke-width:0.23579322;stroke-linecap:butt;stroke-linejoin:miter;stroke-miterlimit:10;stroke-opacity:1"
           inkscape:connector-curvature="0" />
        <path
           id="path6127"
           d="m 149.72475,525.86679 c 0,2.92991 -2.37544,5.30535 -5.30535,5.30535 -2.93083,0 -5.30534,-2.37544 -5.30534,-5.30535 0,-2.92992 2.37451,-5.30535 5.30534,-5.30535 2.92991,0 5.30535,2.37543 5.30535,5.30535"
           style="fill:#000000;fill-opacity:1;stroke:#000000;stroke-width:0.23579322;stroke-linecap:butt;stroke-linejoin:miter;stroke-miterlimit:10;stroke-opacity:1"
           inkscape:connector-curvature="0" />
        <path
           id="path6129"
           d="m 152.69518,515.25609 h 4.24428 v 2.12214 h -4.24428 z m 0,0"
           style="fill:#ffffff;fill-opacity:1;fill-rule:evenodd;stroke:#7878ff;stroke-width:0.23579322;stroke-linecap:butt;stroke-linejoin:miter;stroke-miterlimit:10;stroke-opacity:1"
           inkscape:connector-curvature="0" />
        <path
           id="path6131"
           d="m 152.69518,515.25609 h 4.24428 v 2.12214 h -4.24428 z m 0,0"
           style="fill:#ff0000;fill-opacity:1;stroke:#000000;stroke-width:0.23579322;stroke-linecap:butt;stroke-linejoin:miter;stroke-miterlimit:10;stroke-opacity:1"
           inkscape:connector-curvature="0" />
      </g>
      <text
         xml:space="preserve"
         style="font-style:normal;font-variant:normal;font-weight:bold;font-stretch:normal;line-height:0%;font-family:FreeSerif;-inkscape-font-specification:'FreeSerif Bold';text-align:center;letter-spacing:0px;word-spacing:0px;text-anchor:middle;fill:#000000;fill-opacity:1;stroke:none;stroke-width:1px;stroke-linecap:butt;stroke-linejoin:miter;stroke-opacity:1"
         x="141.45428"
         y="540.36224"
         id="text6133"><tspan
           sodipodi:role="line"
           id="tspan6135"
           x="141.45428"
           y="540.36224"
           style="font-size:10px;line-height:1.25">C1</tspan></text>
    </g>
    <g
       transform="translate(207.06928,54.339326)"
       id="g6879">
      <g
         transform="translate(-2.8673334,-2.8438719)"
         id="g6881">
        <path
           inkscape:connector-curvature="0"
           style="fill:none;stroke:#000000;stroke-width:0.23579322;stroke-linecap:butt;stroke-linejoin:miter;stroke-miterlimit:10;stroke-opacity:1"
           d="m 165.42801,525.86679 c 0,11.71965 -9.5008,21.22139 -21.22139,21.22139 -11.71966,0 -21.22139,-9.50174 -21.22139,-21.22139 0,-11.72059 9.50173,-21.22139 21.22139,-21.22139 11.72059,0 21.22139,9.50081 21.22139,21.22139"
           id="path6883" />
        <path
           inkscape:connector-curvature="0"
           style="fill:#505050;fill-opacity:1;fill-rule:evenodd;stroke:#7878ff;stroke-width:0.23579322;stroke-linecap:butt;stroke-linejoin:miter;stroke-miterlimit:10;stroke-opacity:1"
           d="m 129.35165,517.37823 h 29.70995 v 16.97711 h -29.70995 z m 0,0"
           id="path6885" />
        <path
           inkscape:connector-curvature="0"
           style="fill:none;stroke:#000000;stroke-width:0.23579322;stroke-linecap:butt;stroke-linejoin:miter;stroke-miterlimit:10;stroke-opacity:1"
           d="m 129.35165,517.37823 h 29.70995 v 16.97711 h -29.70995 z m 0,0"
           id="path6887" />
        <path
           inkscape:connector-curvature="0"
           style="fill:#787878;fill-opacity:1;stroke:#202020;stroke-width:0.19849445;stroke-linecap:butt;stroke-linejoin:miter;stroke-miterlimit:10;stroke-opacity:1"
           d="m 151.9218,526.07863 c 0,4.14358 -3.3589,7.50325 -7.50247,7.50325 -4.14435,0 -7.50325,-3.35967 -7.50325,-7.50325 0,-4.14357 3.3589,-7.50324 7.50325,-7.50324 4.14357,0 7.50247,3.35967 7.50247,7.50324"
           id="path6889" />
        <path
           inkscape:connector-curvature="0"
           style="fill:#ffffff;fill-opacity:1;fill-rule:evenodd;stroke:#7878ff;stroke-width:0.23579322;stroke-linecap:butt;stroke-linejoin:miter;stroke-miterlimit:10;stroke-opacity:1"
           d="m 149.72475,525.86679 c 0,2.92991 -2.37544,5.30535 -5.30535,5.30535 -2.93083,0 -5.30534,-2.37544 -5.30534,-5.30535 0,-2.92992 2.37451,-5.30535 5.30534,-5.30535 2.92991,0 5.30535,2.37543 5.30535,5.30535"
           id="path6891" />
        <path
           inkscape:connector-curvature="0"
           style="fill:#000000;fill-opacity:1;stroke:#000000;stroke-width:0.23579322;stroke-linecap:butt;stroke-linejoin:miter;stroke-miterlimit:10;stroke-opacity:1"
           d="m 149.72475,525.86679 c 0,2.92991 -2.37544,5.30535 -5.30535,5.30535 -2.93083,0 -5.30534,-2.37544 -5.30534,-5.30535 0,-2.92992 2.37451,-5.30535 5.30534,-5.30535 2.92991,0 5.30535,2.37543 5.30535,5.30535"
           id="path6893" />
        <path
           inkscape:connector-curvature="0"
           style="fill:#ffffff;fill-opacity:1;fill-rule:evenodd;stroke:#7878ff;stroke-width:0.23579322;stroke-linecap:butt;stroke-linejoin:miter;stroke-miterlimit:10;stroke-opacity:1"
           d="m 152.69518,515.25609 h 4.24428 v 2.12214 h -4.24428 z m 0,0"
           id="path6895" />
        <path
           inkscape:connector-curvature="0"
           style="fill:#ff0000;fill-opacity:1;stroke:#000000;stroke-width:0.23579322;stroke-linecap:butt;stroke-linejoin:miter;stroke-miterlimit:10;stroke-opacity:1"
           d="m 152.69518,515.25609 h 4.24428 v 2.12214 h -4.24428 z m 0,0"
           id="path6897" />
      </g>
      <text
         id="text6899"
         y="540.36224"
         x="141.45428"
         style="font-style:normal;font-variant:normal;font-weight:bold;font-stretch:normal;line-height:0%;font-family:FreeSerif;-inkscape-font-specification:'FreeSerif Bold';text-align:center;letter-spacing:0px;word-spacing:0px;text-anchor:middle;fill:#000000;fill-opacity:1;stroke:none;stroke-width:1px;stroke-linecap:butt;stroke-linejoin:miter;stroke-opacity:1"
         xml:space="preserve"><tspan
           y="540.36224"
           x="141.45428"
           id="tspan6901"
           sodipodi:role="line"
           style="font-size:10px;line-height:1.25">C2</tspan></text>
    </g>
  </g>
</svg>
