<?xml version="1.0" encoding="UTF-8" standalone="no"?>
<svg
   xmlns:dc="http://purl.org/dc/elements/1.1/"
   xmlns:cc="http://creativecommons.org/ns#"
   xmlns:rdf="http://www.w3.org/1999/02/22-rdf-syntax-ns#"
   xmlns:svg="http://www.w3.org/2000/svg"
   xmlns="http://www.w3.org/2000/svg"
   xmlns:xlink="http://www.w3.org/1999/xlink"
   width="236.90666mm"
   height="188.16573mm"
   viewBox="0 0 839.43305 666.72895"
   id="svg2"
   version="1.1">
  <defs
     id="defs4">
    <pattern
       patternTransform="translate(569.71655,769.71697)"
       id="pattern4963"
       xlink:href="#Gris" />
    <pattern
       patternUnits="userSpaceOnUse"
       width="400.00026"
       height="400.00031"
       patternTransform="translate(-30.283464,-780.28351)"
       id="Rojo">
      <g
         id="g4308"
         transform="translate(30.283464,780.28351)">
        <rect
           style="fill:#ff7878;fill-opacity:0.47058824;stroke:none;stroke-width:4;stroke-linejoin:round;stroke-miterlimit:4;stroke-dasharray:none;stroke-opacity:1"
           id="rect4288"
           width="400"
           height="400"
           x="-30.283464"
           y="-780.28351" />
        <path
           style="fill:#ff7878;fill-opacity:1;stroke:none;stroke-width:4;stroke-linejoin:round;stroke-miterlimit:4;stroke-dasharray:none;stroke-opacity:1"
           d="m -30.283203,-780.2832 0,50 350.000003,350 50,0 -400.000003,-400 z m 50,0 350.000003,350 0,-50 -300.000003,-300 -50,0 z m 100.000003,0 250,250 0,-50 -200,-200 -50,0 z m 100,0 150,150 0,-50 -100,-100 -50,0 z m 100,0 50,50 0,-50 -50,0 z m -350.000003,100 0,50 250.000003,250 50,0 -300.000003,-300 z m 0,100 0,50 150.000003,150 50,0 -200.000003,-200 z m 0,100 0,50 50,50 50,0 -100,-100 z"
           id="rect4259" />
      </g>
    </pattern>
    <pattern
       patternUnits="userSpaceOnUse"
       width="400.00029"
       height="400.00029"
       patternTransform="translate(419.71651,-780.28351)"
       id="Azul">
      <g
         id="g4312"
         transform="translate(-419.71651,780.28351)">
        <rect
           y="-819.7168"
           x="-780.28351"
           height="400"
           width="400"
           id="rect4298"
           style="fill:#7878ff;fill-opacity:0.47058824;stroke:none;stroke-width:4;stroke-linejoin:round;stroke-miterlimit:4;stroke-dasharray:none;stroke-opacity:1"
           transform="matrix(0,1,-1,0,0,0)" />
        <path
           id="path4296"
           d="m 819.71651,-780.28322 -50,0 -350,350 0,50 400,-400 z m 0,50 -350,350 50,0 300,-300 0,-50 z m 0,100 -250,250 50,0 200,-200 0,-50 z m 0,100 -150,150 50,0 100,-100 0,-50 z m 0,100 -50,50 50,0 0,-50 z m -100,-350 -50,0 -250,250 0,50 300,-300 z m -100,0 -50,0 -150,150 0,50 200,-200 z m -100,0 -50,0 -50,50 0,50 100,-100 z"
           style="fill:#7878ff;fill-opacity:1;stroke:none;stroke-width:4;stroke-linejoin:round;stroke-miterlimit:4;stroke-dasharray:none;stroke-opacity:1" />
      </g>
    </pattern>
    <pattern
       patternUnits="userSpaceOnUse"
       width="400.00026"
       height="400.00031"
       patternTransform="translate(-24.635742,821.11359)"
       id="Verde">
      <g
         transform="translate(-407.36426,-821.11359)"
         id="g4957">
        <rect
           style="opacity:0.87999998;fill:#78ff78;fill-opacity:0.47058824;stroke:none;stroke-width:4;stroke-linejoin:round;stroke-miterlimit:4;stroke-dasharray:none;stroke-opacity:1"
           id="rect4959"
           width="400"
           height="400"
           x="407.36426"
           y="821.11359" />
        <path
           id="path4961"
           d="m 407.36452,821.11388 0,50 50,0 0,-50 -50,0 z m 50,50 0,50 50,0 0,-50 -50,0 z m 50,0 50,0 0,-50 -50,0 0,50 z m 50,0 0,50 50,0 0,-50 -50,0 z m 50,0 50,0 0,-50 -50,0 0,50 z m 50,0 0,50 50,0 0,-50 -50,0 z m 50,0 50,0 0,-50 -50,0 0,50 z m 50,0 0,50 50,0 0,-50 -50,0 z m 0,50 -50,0 0,49.99998 50,0 0,-49.99998 z m 0,49.99998 0,50.00004 50,0 0,-50.00004 -50,0 z m 0,50.00004 -50,0 0,50 50,0 0,-50 z m 0,50 0,50 50,0 0,-50 -50,0 z m 0,50 -50,0 0,50 50,0 0,-50 z m 0,50 0,50 50,0 0,-50 -50,0 z m -50,0 -50,0 0,50 50,0 0,-50 z m -50,0 0,-50 -50,0 0,50 50,0 z m -50,0 -50,0 0,50 50,0 0,-50 z m -50,0 0,-50 -50,0 0,50 50,0 z m -50,0 -50,0 0,50 50,0 0,-50 z m -50,0 0,-50 -50,0 0,50 50,0 z m 0,-50 50,0 0,-50 -50,0 0,50 z m 0,-50 0,-50 -50,0 0,50 50,0 z m 0,-50 50,0 0,-50.00004 -50,0 0,50.00004 z m 0,-50.00004 0,-49.99998 -50,0 0,49.99998 50,0 z m 50,0 50,0 0,-49.99998 -50,0 0,49.99998 z m 50,0 0,50.00004 50,0 0,-50.00004 -50,0 z m 50,0 50,0 0,-49.99998 -50,0 0,49.99998 z m 50,0 0,50.00004 50,0 0,-50.00004 -50,0 z m 0,50.00004 -50,0 0,50 50,0 0,-50 z m 0,50 0,50 50,0 0,-50 -50,0 z m -50,0 -50,0 0,50 50,0 0,-50 z m -50,0 0,-50 -50,0 0,50 50,0 z"
           style="opacity:0.87999998;fill:#78ff78;fill-opacity:1;stroke:none;stroke-width:4;stroke-linejoin:round;stroke-miterlimit:4;stroke-dasharray:none;stroke-opacity:1" />
      </g>
    </pattern>
    <pattern
       patternUnits="userSpaceOnUse"
       width="400.00025"
       height="400.00025"
       patternTransform="translate(569.71655,819.71655)"
       id="Gris">
      <g
         id="g5145"
         transform="translate(-569.71655,-819.71655)">
        <path
           style="opacity:1;fill:#787878;fill-opacity:1;stroke:none;stroke-width:4;stroke-linejoin:round;stroke-miterlimit:4;stroke-dasharray:none;stroke-opacity:1"
           d="m 584.36133,819.7168 -14.64453,14.64453 0,20.71094 25,25 35.35547,-35.35547 -25,-25 -20.71094,0 z m 50,0 10.35547,10.35547 10.35547,-10.35547 -20.71094,0 z m 50,0 -25,25 35.35547,35.35547 35.35547,-35.35547 -25,-25 -20.71094,0 z m 50,0 10.35547,10.35547 10.35547,-10.35547 -20.71094,0 z m 50,0 -25,25 35.35547,35.35547 35.35547,-35.35547 -25,-25 -20.71094,0 z m 50,0 10.35547,10.35547 10.35547,-10.35547 -20.71094,0 z m 50,0 -25,25 35.35547,35.35547 35.35547,-35.35547 -25,-25 -20.71094,0 z m 50,0 10.35547,10.35547 10.35547,-10.35547 -20.71094,0 z m 35.35547,14.64453 -10.35547,10.35547 10.35547,10.35547 0,-20.71094 z m -325,25 -35.35547,35.35547 35.35547,35.35547 35.35547,-35.35547 -35.35547,-35.35547 z m 100,0 -35.35547,35.35547 35.35547,35.35547 35.35547,-35.35547 -35.35547,-35.35547 z m 100,0 -35.35547,35.35547 35.35547,35.35547 35.35547,-35.35547 -35.35547,-35.35547 z m 100,0 -35.35547,35.35547 35.35547,35.35547 25,-25 0,-20.71094 -25,-25 z m -375,25 0,20.71094 10.35547,-10.35547 -10.35547,-10.35547 z m 25,25 -25,25 0,20.71094 25,25 35.35547,-35.35547 -35.35547,-35.35547 z m 100,0 -35.35547,35.35547 35.35547,35.35547 35.35547,-35.35547 -35.35547,-35.35547 z m 100,0 -35.35547,35.35547 35.35547,35.35547 35.35547,-35.35547 -35.35547,-35.35547 z m 100,0 -35.35547,35.35547 35.35547,35.35547 35.35547,-35.35547 -35.35547,-35.35547 z m 75,25 -10.35547,10.35547 10.35547,10.35547 0,-20.71094 z m -325,25 -35.35547,35.35547 35.35547,35.3555 35.35547,-35.3555 -35.35547,-35.35547 z m 100,0 -35.35547,35.35547 35.35547,35.3555 35.35547,-35.3555 -35.35547,-35.35547 z m 100,0 -35.35547,35.35547 35.35547,35.3555 35.35547,-35.3555 -35.35547,-35.35547 z m 100,0 -35.35547,35.35547 35.35547,35.3555 25,-25 0,-20.71097 -25,-25 z m -375,25 0,20.71097 10.35547,-10.3555 -10.35547,-10.35547 z m 25,24.99997 -25,25 0,20.711 25,25 35.35547,-35.3555 -35.35547,-35.3555 z m 100,0 -35.35547,35.3555 35.35547,35.3555 35.35547,-35.3555 -35.35547,-35.3555 z m 100,0 -35.35547,35.3555 35.35547,35.3555 35.35547,-35.3555 -35.35547,-35.3555 z m 100,0 -35.35547,35.3555 35.35547,35.3555 35.35547,-35.3555 -35.35547,-35.3555 z m 75,25 -10.35547,10.3555 10.35547,10.3555 0,-20.711 z m -325,25 -35.35547,35.3555 35.35547,35.3555 35.35547,-35.3555 -35.35547,-35.3555 z m 100,0 -35.35547,35.3555 35.35547,35.3555 35.35547,-35.3555 -35.35547,-35.3555 z m 100,0 -35.35547,35.3555 35.35547,35.3555 35.35547,-35.3555 -35.35547,-35.3555 z m 100,0 -35.35547,35.3555 35.35547,35.3555 25,-25 0,-20.711 -25,-25 z m -375,25 0,20.711 10.35547,-10.3555 -10.35547,-10.3555 z m 25,25 -25,25 0,20.711 25,25 35.35547,-35.3555 -35.35547,-35.3555 z m 100,0 -35.35547,35.3555 35.35547,35.3555 35.35547,-35.3555 -35.35547,-35.3555 z m 100,0 -35.35547,35.3555 35.35547,35.3555 35.35547,-35.3555 -35.35547,-35.3555 z m 100,0 -35.35547,35.3555 35.35547,35.3555 35.35547,-35.3555 -35.35547,-35.3555 z m 75,25 -10.35547,10.3555 10.35547,10.3555 0,-20.711 z m -325,25 -35.35547,35.3555 25,25 20.71094,0 25,-25 -35.35547,-35.3555 z m 100,0 -35.35547,35.3555 25,25 20.71094,0 25,-25 -35.35547,-35.3555 z m 100,0 -35.35547,35.3555 25,25 20.71094,0 25,-25 -35.35547,-35.3555 z m 100,0 -35.35547,35.3555 25,25 20.71094,0 14.64453,-14.6445 0,-20.711 -25,-25 z m -375,25 0,20.711 10.35547,-10.3555 -10.35547,-10.3555 z m 25,25 -10.35547,10.3555 20.71094,0 -10.35547,-10.3555 z m 100,0 -10.35547,10.3555 20.71094,0 -10.35547,-10.3555 z m 100,0 -10.35547,10.3555 20.71094,0 -10.35547,-10.3555 z m 100,0 -10.35547,10.3555 20.71094,0 -10.35547,-10.3555 z"
           id="rect5039" />
        <rect
           style="opacity:1;fill:#787878;fill-opacity:0.47058824;stroke:none;stroke-width:4;stroke-linejoin:round;stroke-miterlimit:4;stroke-dasharray:none;stroke-opacity:1"
           id="rect5031"
           width="399.99997"
           height="399.99997"
           x="569.71655"
           y="819.71655" />
      </g>
    </pattern>
  </defs>
  <metadata
     id="metadata7">
    <rdf:RDF>
      <cc:Work
         rdf:about="">
        <dc:format>image/svg+xml</dc:format>
        <dc:type
           rdf:resource="http://purl.org/dc/dcmitype/StillImage" />
        <dc:title></dc:title>
      </cc:Work>
    </rdf:RDF>
  </metadata>
  <g
     transform="translate(-30.283465,-32.64567)"
     id="g4186">
    <rect
       y="52.362617"
       x="50"
       height="350"
       width="250"
       id="rect5266"
       style="opacity:1;fill:url(#Rojo);fill-opacity:1.0;stroke:none;stroke-width:4;stroke-linejoin:round;stroke-miterlimit:4;stroke-dasharray:none;stroke-opacity:1" />
    <rect
       y="52.362617"
       x="250"
       height="350"
       width="250"
       id="rect5270"
       style="opacity:1;fill:url(#Azul);fill-opacity:1.0;stroke:none;stroke-width:4;stroke-linejoin:round;stroke-miterlimit:4;stroke-dasharray:none;stroke-opacity:1" />
    <rect
       y="52.362617"
       x="450"
       height="350"
       width="250"
       id="rect5272"
       style="opacity:1;fill:url(#Verde);fill-opacity:1.0;stroke:none;stroke-width:4;stroke-linejoin:round;stroke-miterlimit:4;stroke-dasharray:none;stroke-opacity:1" />
    <rect
       y="52.362617"
       x="650"
       height="350"
       width="200"
       id="rect5274"
       style="opacity:1;fill:url(#Gris);fill-opacity:1.0;stroke:none;stroke-width:4;stroke-linejoin:round;stroke-miterlimit:4;stroke-dasharray:none;stroke-opacity:1" />
    <rect
       y="352.36218"
       x="50"
       height="300"
       width="250"
       id="rect5268"
       style="opacity:1;fill:url(#Verde);fill-opacity:1.0;stroke:none;stroke-width:4;stroke-linejoin:round;stroke-miterlimit:4;stroke-dasharray:none;stroke-opacity:1" />
    <rect
       y="352.36218"
       x="250"
       height="300"
       width="250"
       id="rect5278"
       style="opacity:1;fill:url(#Gris);fill-opacity:1.0;stroke:none;stroke-width:4;stroke-linejoin:round;stroke-miterlimit:4;stroke-dasharray:none;stroke-opacity:1" />
    <rect
       y="352.36218"
       x="450"
       height="300"
       width="250"
       id="rect5280"
       style="opacity:1;fill:url(#Rojo);fill-opacity:1.0;stroke:none;stroke-width:4;stroke-linejoin:round;stroke-miterlimit:4;stroke-dasharray:none;stroke-opacity:1" />
    <rect
       y="352.36218"
       x="650"
       height="300"
       width="200"
       id="rect5284"
       style="opacity:1;fill:url(#Azul);fill-opacity:1.0;stroke:none;stroke-width:4;stroke-linejoin:round;stroke-miterlimit:4;stroke-dasharray:none;stroke-opacity:1" />
    <rect
       style="fill:none;fill-opacity:0.47058824;stroke:#000000;stroke-width:4;stroke-linejoin:round;stroke-miterlimit:4;stroke-dasharray:none;stroke-opacity:1"
       id="rect4160"
       width="800"
       height="600"
       x="50"
       y="52.362206" />
    <path
       style="fill:none;fill-rule:evenodd;stroke:#000000;stroke-width:2;stroke-linecap:butt;stroke-linejoin:miter;stroke-miterlimit:4;stroke-dasharray:none;stroke-opacity:1"
       d="m 150,52.362206 0,600.000004"
       id="path4162" />
    <path
       style="fill:none;fill-rule:evenodd;stroke:#000000;stroke-width:2;stroke-linecap:butt;stroke-linejoin:miter;stroke-miterlimit:4;stroke-dasharray:none;stroke-opacity:1"
       d="m 250,52.362206 0,600.000004"
       id="path4164" />
    <path
       style="fill:none;fill-rule:evenodd;stroke:#000000;stroke-width:2;stroke-linecap:butt;stroke-linejoin:miter;stroke-miterlimit:4;stroke-dasharray:none;stroke-opacity:1"
       d="m 350,52.362206 0,600.000004"
       id="path4166" />
    <path
       style="fill:none;fill-rule:evenodd;stroke:#000000;stroke-width:2;stroke-linecap:butt;stroke-linejoin:miter;stroke-miterlimit:4;stroke-dasharray:none;stroke-opacity:1"
       d="m 450,52.362206 0,600.000004"
       id="path4168" />
    <path
       style="fill:none;fill-rule:evenodd;stroke:#000000;stroke-width:2;stroke-linecap:butt;stroke-linejoin:miter;stroke-miterlimit:4;stroke-dasharray:none;stroke-opacity:1"
       d="m 550,52.362206 0,600.000004"
       id="path4170" />
    <path
       style="fill:none;fill-rule:evenodd;stroke:#000000;stroke-width:2;stroke-linecap:butt;stroke-linejoin:miter;stroke-miterlimit:4;stroke-dasharray:none;stroke-opacity:1"
       d="m 649.99999,52.362206 0,600.000004"
       id="path4172" />
    <path
       style="fill:none;fill-rule:evenodd;stroke:#000000;stroke-width:2;stroke-linecap:butt;stroke-linejoin:miter;stroke-miterlimit:4;stroke-dasharray:none;stroke-opacity:1"
       d="m 749.99999,52.362206 0,600.000004"
       id="path4174" />
    <path
       style="fill:none;fill-rule:evenodd;stroke:#000000;stroke-width:2;stroke-linecap:butt;stroke-linejoin:miter;stroke-miterlimit:4;stroke-dasharray:none;stroke-opacity:1"
       d="m 50,152.36221 799.99999,0"
       id="path4176" />
    <path
       style="fill:none;fill-rule:evenodd;stroke:#000000;stroke-width:2;stroke-linecap:butt;stroke-linejoin:miter;stroke-miterlimit:4;stroke-dasharray:none;stroke-opacity:1"
       d="m 50,252.36221 799.99999,0"
       id="path4178" />
    <path
       style="fill:none;fill-rule:evenodd;stroke:#000000;stroke-width:2;stroke-linecap:butt;stroke-linejoin:miter;stroke-miterlimit:4;stroke-dasharray:none;stroke-opacity:1"
       d="m 50,352.36221 799.99999,0"
       id="path4180" />
    <path
       style="fill:none;fill-rule:evenodd;stroke:#000000;stroke-width:2;stroke-linecap:butt;stroke-linejoin:miter;stroke-miterlimit:4;stroke-dasharray:none;stroke-opacity:1"
       d="m 50,452.36221 799.99999,0"
       id="path4182" />
    <path
       style="fill:none;fill-rule:evenodd;stroke:#000000;stroke-width:2;stroke-linecap:butt;stroke-linejoin:miter;stroke-miterlimit:4;stroke-dasharray:none;stroke-opacity:1"
       d="m 50,552.36221 799.99999,0"
       id="path4184" />
  </g>
  <rect
     style="stroke:none;fill:url(#pattern5149)"
     width="400.00025"
     height="400.00025"
     x="569.71655"
     y="819.71655"
     id="rect5155" />
  <text
     id="text4201"
     y="645.71649"
     x="402.29099"
     style="font-style:normal;font-variant:normal;font-weight:normal;font-stretch:normal;font-size:25px;line-height:125%;font-family:sans-serif;-inkscape-font-specification:sans-serif;letter-spacing:0px;word-spacing:0px;fill:#000000;fill-opacity:1;stroke:none;stroke-width:1px;stroke-linecap:butt;stroke-linejoin:miter;stroke-opacity:1"
     xml:space="preserve"><tspan
       y="645.71649"
       x="402.29099"
       id="tspan4203">(d)</tspan></text>
  <rect
     style="stroke:none;fill:url(#pattern4316)"
     width="400.00026"
     height="400.00031"
     x="-30.283464"
     y="-780.28351"
     id="rect4321" />
  <rect
     style="stroke:none;fill:url(#pattern5039)"
     width="400.00029"
     height="400.00029"
     x="419.71651"
     y="-780.28351"
     id="rect5044" />
  <rect
     style="fill:#00000f;stroke:none;fill-opacity:0.47058824"
     width="400"
     height="400"
     x="-32.283463"
     y="-1380.2834"
     id="rect5194" />
  <rect
     style="stroke:none;fill:url(#pattern5196)"
     width="400"
     height="400"
     x="419.71655"
     y="-1380.2834"
     id="rect5204" />
  <rect
     style="stroke:none;fill:url(#pattern4963)"
     width="400.00026"
     height="400.00031"
     x="-24.635742"
     y="821.11359"
     id="rect4968" />
</svg>
