<?xml version="1.0" encoding="UTF-8" standalone="no"?>
<svg
   xmlns:dc="http://purl.org/dc/elements/1.1/"
   xmlns:cc="http://creativecommons.org/ns#"
   xmlns:rdf="http://www.w3.org/1999/02/22-rdf-syntax-ns#"
   xmlns:svg="http://www.w3.org/2000/svg"
   xmlns="http://www.w3.org/2000/svg"
   width="236.90666mm"
   height="188.16573mm"
   viewBox="0 0 839.43305 666.72895"
   id="svg2"
   version="1.1">
  <defs
     id="defs4">
    <pattern
       patternUnits="userSpaceOnUse"
       width="400.00026"
       height="400.00031"
       patternTransform="translate(-30.283464,-780.28351)"
       id="Rojo">
      <g
         id="g4308"
         transform="translate(30.283464,780.28351)">
        <rect
           style="fill:#ff7878;fill-opacity:0.47058824;stroke:none;stroke-width:4;stroke-linejoin:round;stroke-miterlimit:4;stroke-dasharray:none;stroke-opacity:1"
           id="rect4288"
           width="400"
           height="400"
           x="-30.283464"
           y="-780.28351" />
        <path
           style="fill:#ff7878;fill-opacity:1;stroke:none;stroke-width:4;stroke-linejoin:round;stroke-miterlimit:4;stroke-dasharray:none;stroke-opacity:1"
           d="m -30.283203,-780.2832 0,50 350.000003,350 50,0 -400.000003,-400 z m 50,0 350.000003,350 0,-50 -300.000003,-300 -50,0 z m 100.000003,0 250,250 0,-50 -200,-200 -50,0 z m 100,0 150,150 0,-50 -100,-100 -50,0 z m 100,0 50,50 0,-50 -50,0 z m -350.000003,100 0,50 250.000003,250 50,0 -300.000003,-300 z m 0,100 0,50 150.000003,150 50,0 -200.000003,-200 z m 0,100 0,50 50,50 50,0 -100,-100 z"
           id="rect4259" />
      </g>
    </pattern>
    <pattern
       patternUnits="userSpaceOnUse"
       width="400.00029"
       height="400.00029"
       patternTransform="translate(419.71651,-780.28351)"
       id="Azul">
      <g
         id="g4312"
         transform="translate(-419.71651,780.28351)">
        <rect
           y="-819.7168"
           x="-780.28351"
           height="400"
           width="400"
           id="rect4298"
           style="fill:#7878ff;fill-opacity:0.47058824;stroke:none;stroke-width:4;stroke-linejoin:round;stroke-miterlimit:4;stroke-dasharray:none;stroke-opacity:1"
           transform="matrix(0,1,-1,0,0,0)" />
        <path
           id="path4296"
           d="m 819.71651,-780.28322 -50,0 -350,350 0,50 400,-400 z m 0,50 -350,350 50,0 300,-300 0,-50 z m 0,100 -250,250 50,0 200,-200 0,-50 z m 0,100 -150,150 50,0 100,-100 0,-50 z m 0,100 -50,50 50,0 0,-50 z m -100,-350 -50,0 -250,250 0,50 300,-300 z m -100,0 -50,0 -150,150 0,50 200,-200 z m -100,0 -50,0 -50,50 0,50 100,-100 z"
           style="fill:#7878ff;fill-opacity:1;stroke:none;stroke-width:4;stroke-linejoin:round;stroke-miterlimit:4;stroke-dasharray:none;stroke-opacity:1" />
      </g>
    </pattern>
  </defs>
  <metadata
     id="metadata7">
    <rdf:RDF>
      <cc:Work
         rdf:about="">
        <dc:format>image/svg+xml</dc:format>
        <dc:type
           rdf:resource="http://purl.org/dc/dcmitype/StillImage" />
        <dc:title></dc:title>
      </cc:Work>
    </rdf:RDF>
  </metadata>
  <rect
     style="opacity:0.87999998;fill:url(#Rojo);fill-opacity:1.0;stroke:none;stroke-width:4;stroke-linejoin:round;stroke-miterlimit:4;stroke-dasharray:none;stroke-opacity:1"
     id="rect4982"
     width="425"
     height="600"
     x="19.716536"
     y="19.716526" />
  <rect
     style="opacity:0.87999998;fill:url(#Azul);fill-opacity:1.0;stroke:none;stroke-width:4;stroke-linejoin:round;stroke-miterlimit:4;stroke-dasharray:none;stroke-opacity:1"
     id="rect4984"
     width="425"
     height="600"
     x="394.71652"
     y="19.716526" />
  <g
     transform="translate(-30.283465,-32.64567)"
     id="g4186">
    <rect
       style="fill:none;fill-opacity:0.47058824;stroke:#000000;stroke-width:4;stroke-linejoin:round;stroke-miterlimit:4;stroke-dasharray:none;stroke-opacity:1"
       id="rect4160"
       width="800"
       height="600"
       x="50"
       y="52.362206" />
  </g>
  <text
     id="text4201"
     y="645.71649"
     x="402.29099"
     style="font-style:normal;font-variant:normal;font-weight:normal;font-stretch:normal;font-size:25px;line-height:125%;font-family:sans-serif;-inkscape-font-specification:sans-serif;letter-spacing:0px;word-spacing:0px;fill:#000000;fill-opacity:1;stroke:none;stroke-width:1px;stroke-linecap:butt;stroke-linejoin:miter;stroke-opacity:1"
     xml:space="preserve"><tspan
       y="645.71649"
       x="402.29099"
       id="tspan4203">(b)</tspan></text>
  <rect
     style="stroke:none;fill:url(#pattern4316)"
     width="400.00026"
     height="400.00031"
     x="-30.283464"
     y="-780.28351"
     id="rect4321" />
  <rect
     style="stroke:none;fill:url(#pattern5039)"
     width="400.00029"
     height="400.00029"
     x="419.71651"
     y="-780.28351"
     id="rect5044" />
  <rect
     style="fill:#00000f;stroke:none;fill-opacity:0.47058824"
     width="400"
     height="400"
     x="-32.283463"
     y="-1380.2834"
     id="rect5194" />
  <rect
     style="stroke:none;fill:url(#pattern5196)"
     width="400"
     height="400"
     x="419.71655"
     y="-1380.2834"
     id="rect5204" />
</svg>
