<?xml version="1.0" encoding="UTF-8" standalone="no"?>
<svg
   xmlns:dc="http://purl.org/dc/elements/1.1/"
   xmlns:cc="http://creativecommons.org/ns#"
   xmlns:rdf="http://www.w3.org/1999/02/22-rdf-syntax-ns#"
   xmlns:svg="http://www.w3.org/2000/svg"
   xmlns="http://www.w3.org/2000/svg"
   version="1.1"
   id="svg2"
   viewBox="0 0 839.43305 666.72895"
   height="188.16573mm"
   width="236.90666mm">
  <defs
     id="defs4">
    <pattern
       id="Rojo"
       patternTransform="translate(-30.283464,-780.28351)"
       height="400.00031"
       width="400.00026"
       patternUnits="userSpaceOnUse">
      <g
         transform="translate(30.283464,780.28351)"
         id="g4308">
        <rect
           y="-780.28351"
           x="-30.283464"
           height="400"
           width="400"
           id="rect4288"
           style="fill:#ff7878;fill-opacity:0.47058824;stroke:none;stroke-width:4;stroke-linejoin:round;stroke-miterlimit:4;stroke-dasharray:none;stroke-opacity:1" />
        <path
           id="rect4259"
           d="m -30.283203,-780.2832 0,50 350.000003,350 50,0 -400.000003,-400 z m 50,0 350.000003,350 0,-50 -300.000003,-300 -50,0 z m 100.000003,0 250,250 0,-50 -200,-200 -50,0 z m 100,0 150,150 0,-50 -100,-100 -50,0 z m 100,0 50,50 0,-50 -50,0 z m -350.000003,100 0,50 250.000003,250 50,0 -300.000003,-300 z m 0,100 0,50 150.000003,150 50,0 -200.000003,-200 z m 0,100 0,50 50,50 50,0 -100,-100 z"
           style="fill:#ff7878;fill-opacity:1;stroke:none;stroke-width:4;stroke-linejoin:round;stroke-miterlimit:4;stroke-dasharray:none;stroke-opacity:1" />
      </g>
    </pattern>
    <pattern
       id="Azul"
       patternTransform="translate(419.71651,-780.28351)"
       height="400.00029"
       width="400.00029"
       patternUnits="userSpaceOnUse">
      <g
         transform="translate(-419.71651,780.28351)"
         id="g4312">
        <rect
           transform="matrix(0,1,-1,0,0,0)"
           style="fill:#7878ff;fill-opacity:0.47058824;stroke:none;stroke-width:4;stroke-linejoin:round;stroke-miterlimit:4;stroke-dasharray:none;stroke-opacity:1"
           id="rect4298"
           width="400"
           height="400"
           x="-780.28351"
           y="-819.7168" />
        <path
           style="fill:#7878ff;fill-opacity:1;stroke:none;stroke-width:4;stroke-linejoin:round;stroke-miterlimit:4;stroke-dasharray:none;stroke-opacity:1"
           d="m 819.71651,-780.28322 -50,0 -350,350 0,50 400,-400 z m 0,50 -350,350 50,0 300,-300 0,-50 z m 0,100 -250,250 50,0 200,-200 0,-50 z m 0,100 -150,150 50,0 100,-100 0,-50 z m 0,100 -50,50 50,0 0,-50 z m -100,-350 -50,0 -250,250 0,50 300,-300 z m -100,0 -50,0 -150,150 0,50 200,-200 z m -100,0 -50,0 -50,50 0,50 100,-100 z"
           id="path4296" />
      </g>
    </pattern>
    <pattern
       id="Verde"
       patternTransform="translate(-30.283464,-1380.2834)"
       height="400"
       width="400"
       patternUnits="userSpaceOnUse">
      <g
         transform="translate(30.283464,1380.2834)"
         id="g5179">
        <rect
           y="-1380.2834"
           x="-30.283464"
           height="400"
           width="400"
           id="rect5118"
           style="fill:#78ff78;fill-opacity:0.47058824;stroke:none;stroke-width:4;stroke-linejoin:round;stroke-miterlimit:4;stroke-dasharray:none;stroke-opacity:1" />
        <rect
           y="-1380.2834"
           x="19.716536"
           height="400"
           width="50"
           id="rect5142"
           style="fill:#78ff78;fill-opacity:1;stroke:none;stroke-width:4;stroke-linejoin:round;stroke-miterlimit:4;stroke-dasharray:none;stroke-opacity:1" />
        <rect
           y="-1380.2834"
           x="119.71654"
           height="400"
           width="50"
           id="rect5144"
           style="fill:#78ff78;fill-opacity:1;stroke:none;stroke-width:4;stroke-linejoin:round;stroke-miterlimit:4;stroke-dasharray:none;stroke-opacity:1" />
        <rect
           y="-1380.2834"
           x="219.71654"
           height="400"
           width="50"
           id="rect5146"
           style="fill:#78ff78;fill-opacity:1;stroke:none;stroke-width:4;stroke-linejoin:round;stroke-miterlimit:4;stroke-dasharray:none;stroke-opacity:1" />
        <rect
           y="-1380.2834"
           x="319.71652"
           height="400"
           width="50"
           id="rect5148"
           style="fill:#78ff78;fill-opacity:1;stroke:none;stroke-width:4;stroke-linejoin:round;stroke-miterlimit:4;stroke-dasharray:none;stroke-opacity:1" />
      </g>
    </pattern>
    <pattern
       id="Gris"
       patternTransform="translate(419.71655,-1380.2834)"
       height="400"
       width="400"
       patternUnits="userSpaceOnUse">
      <g
         transform="translate(-419.71655,1380.2834)"
         id="g5172">
        <rect
           transform="matrix(0,-1,1,0,0,0)"
           style="fill:#787878;fill-opacity:0.47058824;stroke:none;stroke-width:4;stroke-linejoin:round;stroke-miterlimit:4;stroke-dasharray:none;stroke-opacity:1"
           id="rect5150"
           width="400"
           height="400"
           x="980.28345"
           y="419.71655" />
        <rect
           transform="matrix(0,-1,1,0,0,0)"
           style="fill:#787878;fill-opacity:1;stroke:none;stroke-width:4;stroke-linejoin:round;stroke-miterlimit:4;stroke-dasharray:none;stroke-opacity:1"
           id="rect5152"
           width="50"
           height="400"
           x="1030.2834"
           y="419.71655" />
        <rect
           transform="matrix(0,-1,1,0,0,0)"
           style="fill:#787878;fill-opacity:1;stroke:none;stroke-width:4;stroke-linejoin:round;stroke-miterlimit:4;stroke-dasharray:none;stroke-opacity:1"
           id="rect5154"
           width="50"
           height="400"
           x="1130.2834"
           y="419.71655" />
        <rect
           transform="matrix(0,-1,1,0,0,0)"
           style="fill:#787878;fill-opacity:1;stroke:none;stroke-width:4;stroke-linejoin:round;stroke-miterlimit:4;stroke-dasharray:none;stroke-opacity:1"
           id="rect5156"
           width="50"
           height="400"
           x="1230.2834"
           y="419.71655" />
        <rect
           transform="matrix(0,-1,1,0,0,0)"
           style="fill:#787878;fill-opacity:1;stroke:none;stroke-width:4;stroke-linejoin:round;stroke-miterlimit:4;stroke-dasharray:none;stroke-opacity:1"
           id="rect5158"
           width="50"
           height="400"
           x="1330.2834"
           y="419.71655" />
      </g>
    </pattern>
  </defs>
  <metadata
     id="metadata7">
    <rdf:RDF>
      <cc:Work
         rdf:about="">
        <dc:format>image/svg+xml</dc:format>
        <dc:type
           rdf:resource="http://purl.org/dc/dcmitype/StillImage" />
        <dc:title></dc:title>
      </cc:Work>
    </rdf:RDF>
  </metadata>
  <rect
     y="19.716526"
     x="19.716536"
     height="600"
     width="800"
     id="rect5206"
     style="fill:url(#Rojo);fill-opacity:1.0;stroke:none;stroke-width:4;stroke-linejoin:round;stroke-miterlimit:4;stroke-dasharray:none;stroke-opacity:1" />
  <g
     transform="translate(-30.283465,-32.64567)"
     id="layer1">
    <g
       id="g4186">
      <rect
         style="fill:none;fill-opacity:0.47058824;stroke:#000000;stroke-width:4;stroke-linejoin:round;stroke-miterlimit:4;stroke-dasharray:none;stroke-opacity:1"
         id="rect4160"
         width="800"
         height="600"
         x="50"
         y="52.362206" />
    </g>
    <text
       id="text4201"
       y="678.36218"
       x="432.57446"
       style="font-style:normal;font-variant:normal;font-weight:normal;font-stretch:normal;font-size:25px;line-height:125%;font-family:sans-serif;-inkscape-font-specification:sans-serif;letter-spacing:0px;word-spacing:0px;fill:#000000;fill-opacity:1;stroke:none;stroke-width:1px;stroke-linecap:butt;stroke-linejoin:miter;stroke-opacity:1"
       xml:space="preserve"><tspan
         y="678.36218"
         x="432.57446"
         id="tspan4203">(a)</tspan></text>
  </g>
  <rect
     id="rect4321"
     y="-780.28351"
     x="-30.283464"
     height="400.00031"
     width="400.00026"
     style="stroke:none;fill:url(#pattern4316)" />
  <rect
     id="rect5044"
     y="-780.28351"
     x="419.71651"
     height="400.00029"
     width="400.00029"
     style="stroke:none;fill:url(#pattern5039)" />
  <rect
     id="rect5194"
     y="-1380.2834"
     x="-32.283463"
     height="400"
     width="400"
     style="fill:#00000f;stroke:none;fill-opacity:0.47058824" />
  <rect
     id="rect5204"
     y="-1380.2834"
     x="419.71655"
     height="400"
     width="400"
     style="stroke:none;fill:url(#pattern5196)" />
</svg>
