<?xml version="1.0" encoding="UTF-8" standalone="no"?>
<svg
   xmlns:dc="http://purl.org/dc/elements/1.1/"
   xmlns:cc="http://creativecommons.org/ns#"
   xmlns:rdf="http://www.w3.org/1999/02/22-rdf-syntax-ns#"
   xmlns:svg="http://www.w3.org/2000/svg"
   xmlns="http://www.w3.org/2000/svg"
   xmlns:sodipodi="http://sodipodi.sourceforge.net/DTD/sodipodi-0.dtd"
   xmlns:inkscape="http://www.inkscape.org/namespaces/inkscape"
   width="95.621521cm"
   height="31.091007cm"
   viewBox="217 -140 1902.0162 604.20191"
   id="svg2"
   version="1.1"
   inkscape:version="0.91 r13725"
   sodipodi:docname="hilos.svg">
  <metadata
     id="metadata430">
    <rdf:RDF>
      <cc:Work
         rdf:about="">
        <dc:format>image/svg+xml</dc:format>
        <dc:type
           rdf:resource="http://purl.org/dc/dcmitype/StillImage" />
        <dc:title></dc:title>
      </cc:Work>
    </rdf:RDF>
  </metadata>
  <defs
     id="defs428" />
  <sodipodi:namedview
     pagecolor="#ffffff"
     bordercolor="#666666"
     borderopacity="1"
     objecttolerance="10"
     gridtolerance="10"
     guidetolerance="10"
     inkscape:pageopacity="0"
     inkscape:pageshadow="2"
     inkscape:window-width="1364"
     inkscape:window-height="749"
     id="namedview426"
     showgrid="false"
     fit-margin-top="0"
     fit-margin-left="0"
     fit-margin-right="0"
     fit-margin-bottom="0"
     inkscape:zoom="0.53269022"
     inkscape:cx="528.22109"
     inkscape:cy="557.28236"
     inkscape:window-x="0"
     inkscape:window-y="17"
     inkscape:window-maximized="0"
     inkscape:current-layer="svg2" />
  <ellipse
     style="fill:none;fill-opacity:0;stroke:#80ff80;stroke-width:5"
     cx="1509.5"
     cy="199.06764"
     rx="210"
     ry="270"
     id="ellipse4" />
  <ellipse
     style="fill:none;fill-opacity:0;stroke:#8080ff;stroke-width:5"
     cx="969.5"
     cy="199.06764"
     rx="210"
     ry="270"
     id="ellipse6" />
  <ellipse
     style="fill:none;fill-opacity:0;stroke:#ff8080;stroke-width:5"
     cx="429.5"
     cy="199.06764"
     rx="210"
     ry="270"
     id="ellipse8" />
  <g
     id="g10"
     transform="translate(-0.5,29.067644)">
    <circle
       style="fill:#90ee90"
       cx="874.51202"
       cy="56.237801"
       id="ellipse12"
       r="34.512199" />
    <circle
       style="fill:none;fill-opacity:0;stroke:#111122;stroke-width:2"
       cx="874.51202"
       cy="56.237801"
       id="ellipse14"
       r="34.512199" />
    <path
       style="fill:#111122"
       d="m 874.512,21.7256 c 17.256,0 34.512,17.2561 34.512,34.5122 -34.512,0 0,0 -34.512,0 0,-36.2378 0,-20.7073 0,-34.5122 z"
       id="path16"
       inkscape:connector-curvature="0" />
    <path
       style="fill:none;fill-opacity:0;stroke:#111122;stroke-width:2"
       d="m 874.512,21.7256 c 17.256,0 34.512,17.2561 34.512,34.5122 -34.512,0 0,0 -34.512,0 0,-36.2378 0,-20.7073 0,-34.5122"
       id="path18"
       inkscape:connector-curvature="0" />
    <path
       style="fill:#111122"
       d="m 840,56.2378 c 0,17.2561 17.256,34.5122 34.512,34.5122 0,-34.5122 0,-17.2561 0,-34.5122 -17.256,0 0,0 -34.512,0 z"
       id="path20"
       inkscape:connector-curvature="0" />
    <path
       style="fill:none;fill-opacity:0;stroke:#111122;stroke-width:2"
       d="m 840,56.2378 c 0,17.2561 17.256,34.5122 34.512,34.5122 0,-34.5122 0,-17.2561 0,-34.5122 -17.256,0 0,0 -34.512,0"
       id="path22"
       inkscape:connector-curvature="0" />
  </g>
  <g
     id="g24"
     transform="translate(-0.5,29.067644)">
    <circle
       style="fill:none;fill-opacity:0;stroke:#000000;stroke-width:0.40000001"
       cx="460"
       cy="260"
       id="ellipse26"
       r="60" />
    <rect
       style="fill:#ffffff"
       x="418"
       y="236"
       width="84"
       height="48"
       id="rect28" />
    <rect
       style="fill:none;fill-opacity:0;stroke:#d8e5e5;stroke-width:0.40000001"
       x="418"
       y="236"
       width="84"
       height="48"
       id="rect30" />
    <rect
       style="fill:none;fill-opacity:0;stroke:#000000;stroke-width:0.40000001"
       x="418"
       y="236"
       width="84"
       height="48"
       id="rect32" />
    <circle
       style="fill:#ffffff"
       cx="460.60001"
       cy="260.60001"
       id="ellipse34"
       r="25.200001" />
    <circle
       style="fill:none;fill-opacity:0;stroke:#d8e5e5;stroke-width:0.40000001"
       cx="460.60001"
       cy="260.60001"
       id="ellipse36"
       r="25.200001" />
    <circle
       style="fill:none;fill-opacity:0;stroke:#000000;stroke-width:0.40000001"
       cx="460.60001"
       cy="260.60001"
       id="ellipse38"
       r="25.200001" />
    <circle
       style="fill:#ffffff"
       cx="460.60001"
       cy="260"
       id="ellipse40"
       r="15" />
    <circle
       style="fill:none;fill-opacity:0;stroke:#d8e5e5;stroke-width:0.40000001"
       cx="460.60001"
       cy="260"
       id="ellipse42"
       r="15" />
    <circle
       style="fill:none;fill-opacity:0;stroke:#000000;stroke-width:0.40000001"
       cx="460.60001"
       cy="260"
       id="ellipse44"
       r="15" />
    <rect
       style="fill:#ffffff"
       x="484"
       y="230"
       width="12"
       height="6"
       id="rect46" />
    <rect
       style="fill:none;fill-opacity:0;stroke:#d8e5e5;stroke-width:0.40000001"
       x="484"
       y="230"
       width="12"
       height="6"
       id="rect48" />
    <rect
       style="fill:none;fill-opacity:0;stroke:#000000;stroke-width:0.40000001"
       x="484"
       y="230"
       width="12"
       height="6"
       id="rect50" />
    <text
       font-size="12.8"
       style="font-style:normal;font-weight:normal;font-size:12.80000019px;font-family:sans-serif;text-anchor:middle;fill:#000000"
       x="466"
       y="344"
       id="text52">
      <tspan
         x="466"
         y="344"
         id="tspan54" />
    </text>
  </g>
  <path
     style="fill:none;fill-opacity:0;stroke:#111122;stroke-width:3"
     d="m 359.5,209.06764 a 20,20 0 1 0 0,40"
     id="path56"
     inkscape:connector-curvature="0" />
  <path
     style="fill:none;fill-opacity:0;stroke:#111122;stroke-width:3"
     d="m 359.5,289.06764 a 20,20 0 0 0 0,-40"
     id="path58"
     inkscape:connector-curvature="0" />
  <path
     style="fill:none;fill-opacity:0;stroke:#111122;stroke-width:3"
     d="m 359.5,289.06764 a 20,20 0 1 0 0,40"
     id="path60"
     inkscape:connector-curvature="0" />
  <path
     style="fill:none;fill-opacity:0;stroke:#111122;stroke-width:3"
     d="m 359.5,369.06764 a 20,20 0 0 0 0,-40"
     id="path62"
     inkscape:connector-curvature="0" />
  <g
     id="g64"
     transform="translate(-0.5,29.067644)">
    <circle
       style="fill:none;fill-opacity:0;stroke:#000000;stroke-width:0.40000001"
       cx="460"
       cy="20"
       id="ellipse66"
       r="60" />
    <ellipse
       style="fill:#000000"
       cx="460"
       cy="-19"
       rx="24"
       ry="15"
       id="ellipse68" />
    <ellipse
       style="fill:none;fill-opacity:0;stroke:#111122;stroke-width:2"
       cx="460"
       cy="-19"
       rx="24"
       ry="15"
       id="ellipse70" />
    <ellipse
       style="fill:none;fill-opacity:0;stroke:#000000;stroke-width:0.2"
       cx="460"
       cy="-19"
       rx="24"
       ry="15"
       id="ellipse72" />
    <ellipse
       style="fill:none;fill-opacity:0;stroke:#000000;stroke-width:0.2"
       cx="460.60001"
       cy="8"
       rx="54.599998"
       ry="48"
       id="ellipse74" />
    <ellipse
       style="fill:none;fill-opacity:0;stroke:#000000;stroke-width:0.2"
       cx="459.39999"
       cy="-7"
       rx="47.400002"
       ry="33"
       id="ellipse76" />
    <text
       font-size="12.8"
       style="font-style:normal;font-weight:normal;font-size:12.80000019px;font-family:sans-serif;text-anchor:middle;fill:#000000"
       x="466"
       y="104"
       id="text78">
      <tspan
         x="466"
         y="104"
         id="tspan80" />
    </text>
  </g>
  <g
     id="g82"
     transform="translate(-0.5,29.067644)">
    <circle
       style="fill:#90ee90"
       cx="874.51202"
       cy="276.23801"
       id="ellipse84"
       r="34.512199" />
    <circle
       style="fill:none;fill-opacity:0;stroke:#111122;stroke-width:2"
       cx="874.51202"
       cy="276.23801"
       id="ellipse86"
       r="34.512199" />
    <path
       style="fill:#111122"
       d="m 874.512,241.726 c 17.256,0 34.512,17.256 34.512,34.512 -34.512,0 0,0 -34.512,0 0,-36.238 0,-20.708 0,-34.512 z"
       id="path88"
       inkscape:connector-curvature="0" />
    <path
       style="fill:none;fill-opacity:0;stroke:#111122;stroke-width:2"
       d="m 874.512,241.726 c 17.256,0 34.512,17.256 34.512,34.512 -34.512,0 0,0 -34.512,0 0,-36.238 0,-20.708 0,-34.512"
       id="path90"
       inkscape:connector-curvature="0" />
    <path
       style="fill:#111122"
       d="m 840,276.238 c 0,17.256 17.256,34.512 34.512,34.512 0,-34.512 0,-17.256 0,-34.512 -17.256,0 0,0 -34.512,0 z"
       id="path92"
       inkscape:connector-curvature="0" />
    <path
       style="fill:none;fill-opacity:0;stroke:#111122;stroke-width:2"
       d="m 840,276.238 c 0,17.256 17.256,34.512 34.512,34.512 0,-34.512 0,-17.256 0,-34.512 -17.256,0 0,0 -34.512,0"
       id="path94"
       inkscape:connector-curvature="0" />
  </g>
  <g
     id="g96"
     transform="translate(-0.5,29.067644)">
    <line
       style="fill:none;fill-opacity:0;stroke:#8080ff;stroke-width:5;stroke-dasharray:16"
       x1="520"
       y1="20"
       x2="826.16602"
       y2="51.295898"
       id="line98" />
    <polygon
       style="fill:#8080ff"
       points="824.188,46.0676 833.627,52.0586 823.171,56.0158 826.166,51.2959 "
       id="polygon100" />
    <polygon
       style="fill:none;fill-opacity:0;stroke:#8080ff;stroke-width:5"
       points="824.188,46.0676 833.627,52.0586 823.171,56.0158 826.166,51.2959 "
       id="polygon102" />
  </g>
  <g
     id="g104"
     transform="translate(-0.5,29.067644)">
    <line
       style="fill:none;fill-opacity:0;stroke:#8080ff;stroke-width:5;stroke-dasharray:16"
       x1="520"
       y1="20"
       x2="835.12"
       y2="247.765"
       id="line106" />
    <polygon
       style="fill:#8080ff"
       points="836.022,242.248 841.198,252.159 830.164,250.353 835.12,247.765 "
       id="polygon108" />
    <polygon
       style="fill:none;fill-opacity:0;stroke:#8080ff;stroke-width:5"
       points="836.022,242.248 841.198,252.159 830.164,250.353 835.12,247.765 "
       id="polygon110" />
  </g>
  <g
     id="g112"
     transform="translate(-0.5,29.067644)">
    <line
       style="fill:none;fill-opacity:0;stroke:#8080ff;stroke-width:5;stroke-dasharray:16"
       x1="905.94702"
       y1="39.765499"
       x2="987.40399"
       y2="-2.91941"
       id="line114" />
    <polygon
       style="fill:#8080ff"
       points="982.869,-6.18782 994.048,-6.40054 987.511,2.66974 987.404,-2.91941 "
       id="polygon116" />
    <polygon
       style="fill:none;fill-opacity:0;stroke:#8080ff;stroke-width:5"
       points="982.869,-6.18782 994.048,-6.40054 987.511,2.66974 987.404,-2.91941 "
       id="polygon118" />
  </g>
  <g
     id="g120"
     transform="translate(-0.5,29.067644)">
    <rect
       style="fill:#80ff80"
       x="1040"
       y="40"
       width="40"
       height="40"
       id="rect122" />
    <rect
       style="fill:none;fill-opacity:0;stroke:#000000;stroke-width:2"
       x="1040"
       y="40"
       width="40"
       height="40"
       id="rect124" />
  </g>
  <g
     id="g126"
     transform="translate(-0.5,29.067644)">
    <rect
       style="fill:#80ff80"
       x="1000"
       y="-40"
       width="40"
       height="40"
       id="rect128" />
    <rect
       style="fill:none;fill-opacity:0;stroke:#000000;stroke-width:2"
       x="1000"
       y="-40"
       width="40"
       height="40"
       id="rect130" />
  </g>
  <g
     id="g132"
     transform="translate(-0.5,29.067644)">
    <line
       style="fill:none;fill-opacity:0;stroke:#8080ff;stroke-width:5;stroke-dasharray:16"
       x1="910.021"
       y1="56.958"
       x2="1026.26"
       y2="59.315701"
       id="line134" />
    <polygon
       style="fill:#8080ff"
       points="1023.86,54.266 1033.76,59.4678 1023.66,64.264 1026.26,59.3157 "
       id="polygon136" />
    <polygon
       style="fill:none;fill-opacity:0;stroke:#8080ff;stroke-width:5"
       points="1023.86,54.266 1033.76,59.4678 1023.66,64.264 1026.26,59.3157 "
       id="polygon138" />
  </g>
  <g
     id="g140"
     transform="translate(-0.5,29.067644)">
    <rect
       style="fill:#80ff80"
       x="1000"
       y="120"
       width="40"
       height="40"
       id="rect142" />
    <rect
       style="fill:none;fill-opacity:0;stroke:#000000;stroke-width:2"
       x="1000"
       y="120"
       width="40"
       height="40"
       id="rect144" />
  </g>
  <g
     id="g146"
     transform="translate(-0.5,29.067644)">
    <line
       style="fill:none;fill-opacity:0;stroke:#8080ff;stroke-width:5;stroke-dasharray:16"
       x1="904.05402"
       y1="75.956497"
       x2="989.112"
       y2="132.733"
       id="line148" />
    <polygon
       style="fill:#8080ff"
       points="989.809,127.186 995.35,136.896 984.257,135.503 989.112,132.733 "
       id="polygon150" />
    <polygon
       style="fill:none;fill-opacity:0;stroke:#8080ff;stroke-width:5"
       points="989.809,127.186 995.35,136.896 984.257,135.503 989.112,132.733 "
       id="polygon152" />
  </g>
  <g
     id="g154"
     transform="translate(-0.5,29.067644)">
    <rect
       style="fill:#80ff80"
       x="1000"
       y="260"
       width="40"
       height="40"
       id="rect156" />
    <rect
       style="fill:none;fill-opacity:0;stroke:#000000;stroke-width:2"
       x="1000"
       y="260"
       width="40"
       height="40"
       id="rect158" />
  </g>
  <g
     id="g160"
     transform="translate(-0.5,29.067644)">
    <rect
       style="fill:#80ff80"
       x="1040"
       y="180"
       width="40"
       height="40"
       id="rect162" />
    <rect
       style="fill:none;fill-opacity:0;stroke:#000000;stroke-width:2"
       x="1040"
       y="180"
       width="40"
       height="40"
       id="rect164" />
  </g>
  <g
     id="g166"
     transform="translate(-0.5,29.067644)">
    <rect
       style="fill:#80ff80"
       x="1040"
       y="340"
       width="40"
       height="40"
       id="rect168" />
    <rect
       style="fill:none;fill-opacity:0;stroke:#000000;stroke-width:2"
       x="1040"
       y="340"
       width="40"
       height="40"
       id="rect170" />
  </g>
  <g
     id="g172"
     transform="translate(-0.5,29.067644)">
    <line
       style="fill:none;fill-opacity:0;stroke:#8080ff;stroke-width:5;stroke-dasharray:16"
       x1="909.89001"
       y1="277.15302"
       x2="985.91302"
       y2="279.11899"
       id="line174" />
    <polygon
       style="fill:#8080ff"
       points="983.543,274.056 993.411,279.312 983.285,284.052 985.913,279.119 "
       id="polygon176" />
    <polygon
       style="fill:none;fill-opacity:0;stroke:#8080ff;stroke-width:5"
       points="983.543,274.056 993.411,279.312 983.285,284.052 985.913,279.119 "
       id="polygon178" />
  </g>
  <g
     id="g180"
     transform="translate(-0.5,29.067644)">
    <line
       style="fill:none;fill-opacity:0;stroke:#8080ff;stroke-width:5;stroke-dasharray:16"
       x1="906.86798"
       y1="290.849"
       x2="1027.42"
       y2="345.28799"
       id="line182" />
    <polygon
       style="fill:#8080ff"
       points="1027.2,339.702 1034.26,348.374 1023.08,348.816 1027.42,345.288 "
       id="polygon184" />
    <polygon
       style="fill:none;fill-opacity:0;stroke:#8080ff;stroke-width:5"
       points="1027.2,339.702 1034.26,348.374 1023.08,348.816 1027.42,345.288 "
       id="polygon186" />
  </g>
  <g
     id="g188"
     transform="translate(-0.5,29.067644)">
    <line
       style="fill:none;fill-opacity:0;stroke:#8080ff;stroke-width:5;stroke-dasharray:16"
       x1="907.35498"
       y1="262.73901"
       x2="1027.24"
       y2="213.464"
       id="line190" />
    <polygon
       style="fill:#8080ff"
       points="1023.03,209.789 1034.18,210.613 1026.83,219.039 1027.24,213.464 "
       id="polygon192" />
    <polygon
       style="fill:none;fill-opacity:0;stroke:#8080ff;stroke-width:5"
       points="1023.03,209.789 1034.18,210.613 1026.83,219.039 1027.24,213.464 "
       id="polygon194" />
  </g>
  <g
     id="g196"
     transform="translate(-0.5,29.067644)">
    <line
       style="fill:none;fill-opacity:0;stroke:#000000;stroke-width:2"
       x1="1400"
       y1="40"
       x2="1050.61"
       y2="-15.1673"
       id="line198" />
    <polygon
       style="fill:#000000"
       points="1052.3,-9.83861 1043.2,-16.337 1053.86,-19.7162 1050.61,-15.1673 "
       id="polygon200" />
    <polygon
       style="fill:none;fill-opacity:0;stroke:#000000;stroke-width:2"
       points="1052.3,-9.83861 1043.2,-16.337 1053.86,-19.7162 1050.61,-15.1673 "
       id="polygon202" />
  </g>
  <g
     id="g204"
     transform="translate(-0.5,29.067644)">
    <line
       style="fill:none;fill-opacity:0;stroke:#000000;stroke-width:2"
       x1="1480"
       y1="180"
       x2="918.836"
       y2="65.2976"
       id="line206" />
    <polygon
       style="fill:#000000"
       points="920.284,70.697 911.488,63.7957 922.287,60.8995 918.836,65.2976 "
       id="polygon208" />
    <polygon
       style="fill:none;fill-opacity:0;stroke:#000000;stroke-width:2"
       points="920.284,70.697 911.488,63.7957 922.287,60.8995 918.836,65.2976 "
       id="polygon210" />
  </g>
  <g
     id="g212"
     transform="translate(-0.5,29.067644)">
    <line
       style="fill:none;fill-opacity:0;stroke:#000000;stroke-width:2"
       x1="1400"
       y1="280"
       x2="1050.73"
       y2="280"
       id="line214" />
    <polygon
       style="fill:#000000"
       points="1053.23,285 1043.23,280 1053.23,275 1050.73,280 "
       id="polygon216" />
    <polygon
       style="fill:none;fill-opacity:0;stroke:#000000;stroke-width:2"
       points="1053.23,285 1043.23,280 1053.23,275 1050.73,280 "
       id="polygon218" />
  </g>
  <g
     id="g220"
     transform="translate(-0.5,29.067644)">
    <line
       style="fill:none;fill-opacity:0;stroke:#000000;stroke-width:2"
       x1="1850"
       y1="0"
       x2="1809.74"
       y2="0"
       id="line222" />
    <polygon
       style="fill:#000000"
       points="1812.24,5 1802.24,0 1812.24,-5 1809.74,0 "
       id="polygon224" />
    <polygon
       style="fill:none;fill-opacity:0;stroke:#000000;stroke-width:2"
       points="1812.24,5 1802.24,0 1812.24,-5 1809.74,0 "
       id="polygon226" />
  </g>
  <g
     id="g228"
     transform="translate(-0.5,29.067644)">
    <circle
       style="fill:none;fill-opacity:0;stroke:#000000;stroke-width:0.40000001"
       cx="1820"
       cy="100"
       id="ellipse230"
       r="20" />
    <ellipse
       style="fill:#000000"
       cx="1820"
       cy="87"
       rx="8"
       ry="5"
       id="ellipse232" />
    <ellipse
       style="fill:none;fill-opacity:0;stroke:#111122;stroke-width:2"
       cx="1820"
       cy="87"
       rx="8"
       ry="5"
       id="ellipse234" />
    <ellipse
       style="fill:none;fill-opacity:0;stroke:#000000;stroke-width:0.2"
       cx="1820"
       cy="87"
       rx="8"
       ry="5"
       id="ellipse236" />
    <ellipse
       style="fill:none;fill-opacity:0;stroke:#000000;stroke-width:0.2"
       cx="1820.2"
       cy="96"
       rx="18.200001"
       ry="16"
       id="ellipse238" />
    <ellipse
       style="fill:none;fill-opacity:0;stroke:#000000;stroke-width:0.2"
       cx="1819.8"
       cy="91"
       rx="15.8"
       ry="11"
       id="ellipse240" />
    <text
       font-size="12.8"
       style="font-style:normal;font-weight:normal;font-size:12.80000019px;font-family:sans-serif;text-anchor:middle;fill:#000000"
       x="1822"
       y="136"
       id="text242">
      <tspan
         x="1822"
         y="136"
         id="tspan244" />
    </text>
  </g>
  <g
     id="g246"
     transform="translate(-0.5,29.067644)">
    <circle
       style="fill:none;fill-opacity:0;stroke:#000000;stroke-width:0.40000001"
       cx="1820"
       cy="160"
       id="ellipse248"
       r="20" />
    <rect
       style="fill:#ffffff"
       x="1806"
       y="152"
       width="28"
       height="16"
       id="rect250" />
    <rect
       style="fill:none;fill-opacity:0;stroke:#d8e5e5;stroke-width:0.40000001"
       x="1806"
       y="152"
       width="28"
       height="16"
       id="rect252" />
    <rect
       style="fill:none;fill-opacity:0;stroke:#000000;stroke-width:0.40000001"
       x="1806"
       y="152"
       width="28"
       height="16"
       id="rect254" />
    <circle
       style="fill:#ffffff"
       cx="1820.2"
       cy="160.2"
       id="ellipse256"
       r="8.3999996" />
    <circle
       style="fill:none;fill-opacity:0;stroke:#d8e5e5;stroke-width:0.40000001"
       cx="1820.2"
       cy="160.2"
       id="ellipse258"
       r="8.3999996" />
    <circle
       style="fill:none;fill-opacity:0;stroke:#000000;stroke-width:0.40000001"
       cx="1820.2"
       cy="160.2"
       id="ellipse260"
       r="8.3999996" />
    <circle
       style="fill:#ffffff"
       cx="1820.2"
       cy="160"
       id="ellipse262"
       r="5" />
    <circle
       style="fill:none;fill-opacity:0;stroke:#d8e5e5;stroke-width:0.40000001"
       cx="1820.2"
       cy="160"
       id="ellipse264"
       r="5" />
    <circle
       style="fill:none;fill-opacity:0;stroke:#000000;stroke-width:0.40000001"
       cx="1820.2"
       cy="160"
       id="ellipse266"
       r="5" />
    <rect
       style="fill:#ffffff"
       x="1828"
       y="150"
       width="4"
       height="2"
       id="rect268" />
    <rect
       style="fill:none;fill-opacity:0;stroke:#d8e5e5;stroke-width:0.40000001"
       x="1828"
       y="150"
       width="4"
       height="2"
       id="rect270" />
    <rect
       style="fill:none;fill-opacity:0;stroke:#000000;stroke-width:0.40000001"
       x="1828"
       y="150"
       width="4"
       height="2"
       id="rect272" />
    <text
       font-size="12.8"
       style="font-style:normal;font-weight:normal;font-size:12.80000019px;font-family:sans-serif;text-anchor:middle;fill:#000000"
       x="1822"
       y="196"
       id="text274">
      <tspan
         x="1822"
         y="196"
         id="tspan276" />
    </text>
  </g>
  <g
     id="g278"
     transform="translate(-0.5,29.067644)">
    <circle
       style="fill:#90ee90"
       cx="1819.76"
       cy="220.744"
       id="ellipse280"
       r="19.7561" />
    <circle
       style="fill:none;fill-opacity:0;stroke:#111122;stroke-width:2"
       cx="1819.76"
       cy="220.744"
       id="ellipse282"
       r="19.7561" />
    <path
       style="fill:#111122"
       d="m 1819.76,200.988 c 9.87,0 19.75,9.878 19.75,19.756 -19.75,0 0,0 -19.75,0 0,-20.744 0,-11.854 0,-19.756 z"
       id="path284"
       inkscape:connector-curvature="0" />
    <path
       style="fill:none;fill-opacity:0;stroke:#111122;stroke-width:2"
       d="m 1819.76,200.988 c 9.87,0 19.75,9.878 19.75,19.756 -19.75,0 0,0 -19.75,0 0,-20.744 0,-11.854 0,-19.756"
       id="path286"
       inkscape:connector-curvature="0" />
    <path
       style="fill:#111122"
       d="m 1800,220.744 c 0,9.878 9.88,19.756 19.76,19.756 0,-19.756 0,-9.878 0,-19.756 -9.88,0 0,0 -19.76,0 z"
       id="path288"
       inkscape:connector-curvature="0" />
    <path
       style="fill:none;fill-opacity:0;stroke:#111122;stroke-width:2"
       d="m 1800,220.744 c 0,9.878 9.88,19.756 19.76,19.756 0,-19.756 0,-9.878 0,-19.756 -9.88,0 0,0 -19.76,0"
       id="path290"
       inkscape:connector-curvature="0" />
  </g>
  <g
     id="g292"
     transform="translate(-0.5,29.067644)">
    <rect
       style="fill:#80ff80"
       x="1800"
       y="260"
       width="40"
       height="40"
       id="rect294" />
    <rect
       style="fill:none;fill-opacity:0;stroke:#000000;stroke-width:2"
       x="1800"
       y="260"
       width="40"
       height="40"
       id="rect296" />
  </g>
  <g
     id="g298"
     transform="translate(-0.5,29.067644)">
    <line
       style="fill:none;fill-opacity:0;stroke:#8080ff;stroke-width:5;stroke-dasharray:16"
       x1="1800"
       y1="40"
       x2="1836.91"
       y2="40"
       id="line300" />
    <polygon
       style="fill:#8080ff"
       points="1834.41,35 1844.41,40 1834.41,45 1836.91,40 "
       id="polygon302" />
    <polygon
       style="fill:none;fill-opacity:0;stroke:#8080ff;stroke-width:5"
       points="1834.41,35 1844.41,40 1834.41,45 1836.91,40 "
       id="polygon304" />
  </g>
  <text
     font-size="33.8667"
     style="font-style:normal;font-variant:normal;font-weight:bold;font-stretch:normal;font-size:33.86679459px;line-height:125%;font-family:FreeSerif;-inkscape-font-specification:'FreeSerif, Bold';text-align:center;writing-mode:lr-tb;text-anchor:middle;fill:#111122"
     x="429.5"
     y="-78.932358"
     id="text306"
     sodipodi:linespacing="125%">
    <tspan
       x="429.5"
       y="-78.932358"
       id="tspan308"
       style="font-style:normal;font-variant:normal;font-weight:bold;font-stretch:normal;font-size:33.86679459px;line-height:125%;font-family:FreeSerif;-inkscape-font-specification:'FreeSerif, Bold';text-align:center;writing-mode:lr-tb;text-anchor:middle">Tareas estáticas</tspan>
  </text>
  <text
     font-size="33.8667"
     style="font-style:normal;font-variant:normal;font-weight:bold;font-stretch:normal;font-size:33.86679459px;line-height:125%;font-family:FreeSerif;-inkscape-font-specification:'FreeSerif, Bold';text-align:center;writing-mode:lr-tb;text-anchor:middle;fill:#111122"
     x="969.5"
     y="-78.932358"
     id="text310"
     sodipodi:linespacing="125%">
    <tspan
       x="969.5"
       y="-78.932358"
       id="tspan312"
       style="font-style:normal;font-variant:normal;font-weight:bold;font-stretch:normal;font-size:33.86679459px;line-height:125%;font-family:FreeSerif;-inkscape-font-specification:'FreeSerif, Bold';text-align:center;writing-mode:lr-tb;text-anchor:middle">Tareas de búsqueda</tspan>
  </text>
  <text
     font-size="33.8667"
     style="font-style:normal;font-variant:normal;font-weight:bold;font-stretch:normal;font-size:33.86679459px;line-height:125%;font-family:FreeSerif;-inkscape-font-specification:'FreeSerif, Bold';text-align:center;writing-mode:lr-tb;text-anchor:middle;fill:#111122"
     x="1509.5"
     y="-122.71928"
     id="text314"
     sodipodi:linespacing="125%">
    <tspan
       sodipodi:role="line"
       id="tspan4579"
       x="1509.5"
       y="-122.71928">Hilos de ejecución para</tspan>
    <tspan
       sodipodi:role="line"
       id="tspan4581"
       x="1509.5"
       y="-80.385788">tareas de búsqueda</tspan>
  </text>
  <text
     font-size="22.5778"
     style="font-style:italic;font-variant:normal;font-weight:bold;font-stretch:normal;font-size:22.57762718px;line-height:125%;font-family:FreeSerif;-inkscape-font-specification:'FreeSerif, Bold Italic';text-align:start;writing-mode:lr-tb;text-anchor:start;fill:#111122"
     x="1859.5"
     y="36.992645"
     id="text318"
     sodipodi:linespacing="125%">
    <tspan
       x="1859.5"
       y="36.992645"
       id="tspan320"
       style="font-style:italic;font-variant:normal;font-weight:bold;font-stretch:normal;font-size:22.57762718px;line-height:125%;font-family:FreeSerif;-inkscape-font-specification:'FreeSerif, Bold Italic';text-align:start;writing-mode:lr-tb;text-anchor:start">Ejecuta</tspan>
  </text>
  <text
     font-size="22.5778"
     style="font-style:italic;font-variant:normal;font-weight:bold;font-stretch:normal;font-size:22.57762718px;line-height:125%;font-family:FreeSerif;-inkscape-font-specification:'FreeSerif, Bold Italic';text-align:start;writing-mode:lr-tb;text-anchor:start;fill:#111122"
     x="1859.5"
     y="76.992645"
     id="text322"
     sodipodi:linespacing="125%">
    <tspan
       x="1859.5"
       y="76.992645"
       id="tspan324"
       style="font-style:italic;font-variant:normal;font-weight:bold;font-stretch:normal;font-size:22.57762718px;line-height:125%;font-family:FreeSerif;-inkscape-font-specification:'FreeSerif, Bold Italic';text-align:start;writing-mode:lr-tb;text-anchor:start">Crea</tspan>
  </text>
  <text
     font-size="22.5778"
     style="font-style:italic;font-variant:normal;font-weight:bold;font-stretch:normal;font-size:22.57762718px;line-height:125%;font-family:FreeSerif;-inkscape-font-specification:'FreeSerif, Bold Italic';text-align:start;writing-mode:lr-tb;text-anchor:start;fill:#111122"
     x="1859.5"
     y="122.88155"
     id="text326"
     sodipodi:linespacing="125%">
    <tspan
       x="1859.5"
       y="122.88155"
       id="tspan328"
       style="font-style:italic;font-variant:normal;font-weight:bold;font-stretch:normal;font-size:22.57762718px;line-height:125%;font-family:FreeSerif;-inkscape-font-specification:'FreeSerif, Bold Italic';text-align:start;writing-mode:lr-tb;text-anchor:start">Generación de tareas de</tspan>
    <tspan
       x="1859.5"
       y="151.10365"
       id="tspan330"
       style="font-style:italic;font-variant:normal;font-weight:bold;font-stretch:normal;font-size:22.57762718px;line-height:125%;font-family:FreeSerif;-inkscape-font-specification:'FreeSerif, Bold Italic';text-align:start;writing-mode:lr-tb;text-anchor:start">fragmentación de cuadro</tspan>
  </text>
  <text
     font-size="22.5778"
     style="font-style:italic;font-variant:normal;font-weight:bold;font-stretch:normal;font-size:22.57762718px;line-height:125%;font-family:FreeSerif;-inkscape-font-specification:'FreeSerif, Bold Italic';text-align:start;writing-mode:lr-tb;text-anchor:start;fill:#111122"
     x="1859.5"
     y="196.99265"
     id="text332"
     sodipodi:linespacing="125%">
    <tspan
       x="1859.5"
       y="196.99265"
       id="tspan334"
       style="font-style:italic;font-variant:normal;font-weight:bold;font-stretch:normal;font-size:22.57762718px;line-height:125%;font-family:FreeSerif;-inkscape-font-specification:'FreeSerif, Bold Italic';text-align:start;writing-mode:lr-tb;text-anchor:start">Generación de cuadros</tspan>
  </text>
  <text
     font-size="22.5778"
     style="font-style:italic;font-variant:normal;font-weight:bold;font-stretch:normal;font-size:22.57762718px;line-height:125%;font-family:FreeSerif;-inkscape-font-specification:'FreeSerif, Bold Italic';text-align:start;writing-mode:lr-tb;text-anchor:start;fill:#111122"
     x="1859.5"
     y="256.99265"
     id="text336"
     sodipodi:linespacing="125%">
    <tspan
       x="1859.5"
       y="256.99265"
       id="tspan338"
       style="font-style:italic;font-variant:normal;font-weight:bold;font-stretch:normal;font-size:22.57762718px;line-height:125%;font-family:FreeSerif;-inkscape-font-specification:'FreeSerif, Bold Italic';text-align:start;writing-mode:lr-tb;text-anchor:start">Fragmentación de cuadro</tspan>
  </text>
  <text
     font-size="22.5778"
     style="font-style:italic;font-variant:normal;font-weight:bold;font-stretch:normal;font-size:22.57762718px;line-height:125%;font-family:FreeSerif;-inkscape-font-specification:'FreeSerif, Bold Italic';text-align:start;writing-mode:lr-tb;text-anchor:start;fill:#111122"
     x="1859.5"
     y="316.99265"
     id="text340"
     sodipodi:linespacing="125%">
    <tspan
       x="1859.5"
       y="316.99265"
       id="tspan342"
       style="font-style:italic;font-variant:normal;font-weight:bold;font-stretch:normal;font-size:22.57762718px;line-height:125%;font-family:FreeSerif;-inkscape-font-specification:'FreeSerif, Bold Italic';text-align:start;writing-mode:lr-tb;text-anchor:start">Procesamiento de fragmento</tspan>
  </text>
  <text
     font-size="22.5778"
     style="font-style:italic;font-variant:normal;font-weight:bold;font-stretch:normal;font-size:22.57762718px;line-height:125%;font-family:FreeSerif;-inkscape-font-specification:'FreeSerif, Bold Italic';text-align:start;writing-mode:lr-tb;text-anchor:start;fill:#111122"
     x="1859.5"
     y="366.99265"
     id="text344"
     sodipodi:linespacing="125%">
    <tspan
       x="1859.5"
       y="366.99265"
       id="tspan346"
       style="font-style:italic;font-variant:normal;font-weight:bold;font-stretch:normal;font-size:22.57762718px;line-height:125%;font-family:FreeSerif;-inkscape-font-specification:'FreeSerif, Bold Italic';text-align:start;writing-mode:lr-tb;text-anchor:start">Hilo de ejecución</tspan>
  </text>
  <path
     style="fill:none;fill-opacity:0;stroke:#000000;stroke-width:1"
     d="m 1819.5,339.06764 a 6.25,6.25 0 1 0 0,10"
     id="path348"
     inkscape:connector-curvature="0" />
  <path
     style="fill:none;fill-opacity:0;stroke:#000000;stroke-width:1"
     d="m 1819.5,359.06764 a 6.25,6.25 0 1 0 0,-10"
     id="path350"
     inkscape:connector-curvature="0" />
  <path
     style="fill:none;fill-opacity:0;stroke:#000000;stroke-width:1"
     d="m 1819.5,359.06764 a 6.06572,6.06572 0 1 0 0,10"
     id="path352"
     inkscape:connector-curvature="0" />
  <path
     style="fill:none;fill-opacity:0;stroke:#000000;stroke-width:1"
     d="m 1819.5,379.06764 a 6.25,6.25 0 1 0 0,-10"
     id="path354"
     inkscape:connector-curvature="0" />
  <g
     id="g356"
     transform="translate(-0.5,29.067644)">
    <path
       style="fill:none;fill-opacity:0;stroke:#111122;stroke-width:3"
       d="m 360,-60 a 20,20 0 1 0 0,40"
       id="path358"
       inkscape:connector-curvature="0" />
    <path
       style="fill:none;fill-opacity:0;stroke:#111122;stroke-width:3"
       d="m 360,20 a 20,20 0 1 0 0,-40"
       id="path360"
       inkscape:connector-curvature="0" />
    <path
       style="fill:none;fill-opacity:0;stroke:#111122;stroke-width:3"
       d="m 360,20 a 20,20 0 1 0 0,40"
       id="path362"
       inkscape:connector-curvature="0" />
    <path
       style="fill:none;fill-opacity:0;stroke:#111122;stroke-width:3"
       d="m 360,100 a 20,20 0 1 0 0,-40"
       id="path364"
       inkscape:connector-curvature="0" />
  </g>
  <g
     id="g366"
     transform="translate(-0.5,29.067644)">
    <path
       style="fill:none;fill-opacity:0;stroke:#111122;stroke-width:3"
       d="m 1420,-40 a 20,20 0 1 0 0,40"
       id="path368"
       inkscape:connector-curvature="0" />
    <path
       style="fill:none;fill-opacity:0;stroke:#111122;stroke-width:3"
       d="m 1420,40 a 20,20 0 1 0 0,-40"
       id="path370"
       inkscape:connector-curvature="0" />
    <path
       style="fill:none;fill-opacity:0;stroke:#111122;stroke-width:3"
       d="m 1420,40 a 20,20 0 1 0 0,40"
       id="path372"
       inkscape:connector-curvature="0" />
    <path
       style="fill:none;fill-opacity:0;stroke:#111122;stroke-width:3"
       d="m 1420,120 a 20,20 0 1 0 0,-40"
       id="path374"
       inkscape:connector-curvature="0" />
  </g>
  <g
     id="g376"
     transform="translate(-0.5,29.067644)">
    <path
       style="fill:none;fill-opacity:0;stroke:#111122;stroke-width:3"
       d="m 1500,100 a 20,20 0 1 0 0,40"
       id="path378"
       inkscape:connector-curvature="0" />
    <path
       style="fill:none;fill-opacity:0;stroke:#111122;stroke-width:3"
       d="m 1500,180 a 20,20 0 1 0 0,-40"
       id="path380"
       inkscape:connector-curvature="0" />
    <path
       style="fill:none;fill-opacity:0;stroke:#111122;stroke-width:3"
       d="m 1500,180 a 20,20 0 1 0 0,40"
       id="path382"
       inkscape:connector-curvature="0" />
    <path
       style="fill:none;fill-opacity:0;stroke:#111122;stroke-width:3"
       d="m 1500,260 a 20,20 0 1 0 0,-40"
       id="path384"
       inkscape:connector-curvature="0" />
  </g>
  <g
     id="g386"
     transform="translate(-0.5,29.067644)">
    <path
       style="fill:none;fill-opacity:0;stroke:#111122;stroke-width:3"
       d="m 1420,200 a 20,20 0 1 0 0,40"
       id="path388"
       inkscape:connector-curvature="0" />
    <path
       style="fill:none;fill-opacity:0;stroke:#111122;stroke-width:3"
       d="m 1420,280 a 20,20 0 1 0 0,-40"
       id="path390"
       inkscape:connector-curvature="0" />
    <path
       style="fill:none;fill-opacity:0;stroke:#111122;stroke-width:3"
       d="m 1420,280 a 20,20 0 1 0 0,40"
       id="path392"
       inkscape:connector-curvature="0" />
    <path
       style="fill:none;fill-opacity:0;stroke:#111122;stroke-width:3"
       d="m 1420,360 a 20,20 0 1 0 0,-40"
       id="path394"
       inkscape:connector-curvature="0" />
  </g>
  <g
     id="g396"
     transform="translate(-0.5,29.067644)">
    <path
       style="fill:none;fill-opacity:0;stroke:#111122;stroke-width:3"
       d="m 1580,200 a 20,20 0 1 0 0,40"
       id="path398"
       inkscape:connector-curvature="0" />
    <path
       style="fill:none;fill-opacity:0;stroke:#111122;stroke-width:3"
       d="m 1580,280 a 20,20 0 1 0 0,-40"
       id="path400"
       inkscape:connector-curvature="0" />
    <path
       style="fill:none;fill-opacity:0;stroke:#111122;stroke-width:3"
       d="m 1580,280 a 20,20 0 1 0 0,40"
       id="path402"
       inkscape:connector-curvature="0" />
    <path
       style="fill:none;fill-opacity:0;stroke:#111122;stroke-width:3"
       d="m 1580,360 a 20,20 0 1 0 0,-40"
       id="path404"
       inkscape:connector-curvature="0" />
  </g>
  <g
     id="g406"
     transform="translate(-0.5,29.067644)">
    <path
       style="fill:none;fill-opacity:0;stroke:#111122;stroke-width:3"
       d="m 1560,-40 a 20,20 0 1 0 0,40"
       id="path408"
       inkscape:connector-curvature="0" />
    <path
       style="fill:none;fill-opacity:0;stroke:#111122;stroke-width:3"
       d="m 1560,40 a 20,20 0 1 0 0,-40"
       id="path410"
       inkscape:connector-curvature="0" />
    <path
       style="fill:none;fill-opacity:0;stroke:#111122;stroke-width:3"
       d="m 1560,40 a 20,20 0 1 0 0,40"
       id="path412"
       inkscape:connector-curvature="0" />
    <path
       style="fill:none;fill-opacity:0;stroke:#111122;stroke-width:3"
       d="m 1560,120 a 20,20 0 1 0 0,-40"
       id="path414"
       inkscape:connector-curvature="0" />
  </g>
  <g
     id="g416"
     transform="translate(-0.5,29.067644)">
    <path
       style="fill:none;fill-opacity:0;stroke:#111122;stroke-width:3"
       d="m 1640,80 a 20,20 0 1 0 0,40"
       id="path418"
       inkscape:connector-curvature="0" />
    <path
       style="fill:none;fill-opacity:0;stroke:#111122;stroke-width:3"
       d="m 1640,160 a 20,20 0 1 0 0,-40"
       id="path420"
       inkscape:connector-curvature="0" />
    <path
       style="fill:none;fill-opacity:0;stroke:#111122;stroke-width:3"
       d="m 1640,160 a 20,20 0 1 0 0,40"
       id="path422"
       inkscape:connector-curvature="0" />
    <path
       style="fill:none;fill-opacity:0;stroke:#111122;stroke-width:3"
       d="m 1640,240 a 20,20 0 1 0 0,-40"
       id="path424"
       inkscape:connector-curvature="0" />
  </g>
  <flowRoot
     xml:space="preserve"
     id="flowRoot4567"
     style="font-style:normal;font-weight:normal;font-size:22.45482826px;line-height:125%;font-family:Sans;letter-spacing:0px;word-spacing:0px;fill:#000000;fill-opacity:1;stroke:none;stroke-width:1px;stroke-linecap:butt;stroke-linejoin:miter;stroke-opacity:1"><flowRegion
       id="flowRegion4569"><rect
         id="rect4571"
         width="8.430727"
         height="43.207474"
         x="1499.0243"
         y="-76.440147" /></flowRegion><flowPara
       id="flowPara4573"></flowPara></flowRoot></svg>
