<?xml version="1.0" encoding="UTF-8" standalone="no"?>
<svg
   xmlns:dc="http://purl.org/dc/elements/1.1/"
   xmlns:cc="http://creativecommons.org/ns#"
   xmlns:rdf="http://www.w3.org/1999/02/22-rdf-syntax-ns#"
   xmlns:svg="http://www.w3.org/2000/svg"
   xmlns="http://www.w3.org/2000/svg"
   version="1.1"
   id="svg2"
   xml:space="preserve"
   width="769.33331"
   height="453.33334"
   viewBox="0 0 769.33331 453.33334"><metadata
     id="metadata8"><rdf:RDF><cc:Work
         rdf:about=""><dc:format>image/svg+xml</dc:format><dc:type
           rdf:resource="http://purl.org/dc/dcmitype/StillImage" /><dc:title></dc:title></cc:Work></rdf:RDF></metadata><defs
     id="defs6" /><path
     d="M 0,453.33333 H 769.33331 V 8e-6 H 0 Z"
     style="fill:#ffffff;fill-opacity:1;fill-rule:nonzero;stroke:none;stroke-width:0.13333333"
     id="path14" /><path
     d="M 0,453.33333 H 769.33331 V 8e-6 H 0 Z"
     style="fill:none;stroke:#000000;stroke-width:1.33333325;stroke-linecap:butt;stroke-linejoin:miter;stroke-miterlimit:10;stroke-dasharray:none;stroke-opacity:1"
     id="path16" /><g
     id="g18"
     transform="matrix(1.3333333,0,0,-1.3333333,0,453.33333)"><text
       transform="matrix(1,0,0,-1,10,320)"
       style="font-variant:normal;font-weight:normal;font-size:10px;font-family:'DejaVu Sans';-inkscape-font-specification:DejaVuSans;writing-mode:lr-tb;fill:#000000;fill-opacity:1;fill-rule:nonzero;stroke:none"
       id="text22"><tspan
         x="0 8.6300001 14.76 20.26 26.6 29.379999 35.720001 41.869999 45.049999 48.950001 55.310001 61.669998 69.419998 72.199997 79.059998"
         y="0"
         id="tspan20">Machine (16GiB)</tspan></text>
</g><path
     d="M 13.333333,440 H 755.99998 V 40.000007 H 13.333333 Z"
     style="fill:#dedede;fill-opacity:1;fill-rule:nonzero;stroke:none;stroke-width:0.13333333"
     id="path24" /><path
     d="M 13.333333,440 H 755.99998 V 40.000007 H 13.333333 Z"
     style="fill:none;stroke:#000000;stroke-width:1.33333325;stroke-linecap:butt;stroke-linejoin:miter;stroke-miterlimit:10;stroke-dasharray:none;stroke-opacity:1"
     id="path26" /><g
     id="g28"
     transform="matrix(1.3333333,0,0,-1.3333333,0,453.33333)"><text
       transform="matrix(1,0,0,-1,20,290)"
       style="font-variant:normal;font-weight:normal;font-size:10px;font-family:'DejaVu Sans';-inkscape-font-specification:DejaVuSans;writing-mode:lr-tb;fill:#000000;fill-opacity:1;fill-rule:nonzero;stroke:none"
       id="text32"><tspan
         x="0 6 12.12 17.620001 23.41 29.559999 35.560001 38.740002 44.77 53.150002"
         y="0"
         id="tspan30">Socket P#0</tspan></text>
</g><path
     d="M 26.666666,120 H 742.66665 V 80.000006 H 26.666666 Z"
     style="fill:#ffffff;fill-opacity:1;fill-rule:nonzero;stroke:none;stroke-width:0.13333333"
     id="path34" /><path
     d="M 26.666666,120 H 742.66665 V 80.000006 H 26.666666 Z"
     style="fill:none;stroke:#000000;stroke-width:1.33333325;stroke-linecap:butt;stroke-linejoin:miter;stroke-miterlimit:10;stroke-dasharray:none;stroke-opacity:1"
     id="path36" /><g
     id="g38"
     transform="matrix(1.3333333,0,0,-1.3333333,0,453.33333)"><text
       transform="matrix(1,0,0,-1,30,260)"
       style="font-variant:normal;font-weight:normal;font-size:10px;font-family:'DejaVu Sans';-inkscape-font-specification:DejaVuSans;writing-mode:lr-tb;fill:#000000;fill-opacity:1;fill-rule:nonzero;stroke:none"
       id="text42"><tspan
         x="0 5.5700002 11.93 15.11 19.01 25.370001 31.73 40.360001 43.139999 50"
         y="0"
         id="tspan40">L3 (15MiB)</tspan></text>
</g><path
     d="M 26.666666,173.33334 H 134.66666 v -40 H 26.666666 Z"
     style="fill:#ffffff;fill-opacity:1;fill-rule:nonzero;stroke:none;stroke-width:0.13333333"
     id="path44" /><path
     d="M 26.666666,173.33334 H 134.66666 v -40 H 26.666666 Z"
     style="fill:none;stroke:#000000;stroke-width:1.33333325;stroke-linecap:butt;stroke-linejoin:miter;stroke-miterlimit:10;stroke-dasharray:none;stroke-opacity:1"
     id="path46" /><g
     id="g48"
     transform="matrix(1.3333333,0,0,-1.3333333,0,453.33333)"><text
       transform="matrix(1,0,0,-1,30,220)"
       style="font-variant:normal;font-weight:normal;font-size:10px;font-family:'DejaVu Sans';-inkscape-font-specification:DejaVuSans;writing-mode:lr-tb;fill:#000000;fill-opacity:1;fill-rule:nonzero;stroke:none"
       id="text52"><tspan
         x="0 5.5700002 11.93 15.11 19.01 25.370001 31.73 38.09 44.650002 47.43 54.290001"
         y="0"
         id="tspan50">L2 (256KiB)</tspan></text>
</g><path
     d="M 26.666666,226.66667 H 134.66666 v -40 H 26.666666 Z"
     style="fill:#ffffff;fill-opacity:1;fill-rule:nonzero;stroke:none;stroke-width:0.13333333"
     id="path54" /><path
     d="M 26.666666,226.66667 H 134.66666 v -40 H 26.666666 Z"
     style="fill:none;stroke:#000000;stroke-width:1.33333325;stroke-linecap:butt;stroke-linejoin:miter;stroke-miterlimit:10;stroke-dasharray:none;stroke-opacity:1"
     id="path56" /><g
     id="g58"
     transform="matrix(1.3333333,0,0,-1.3333333,0,453.33333)"><text
       transform="matrix(1,0,0,-1,30,180)"
       style="font-variant:normal;font-weight:normal;font-size:10px;font-family:'DejaVu Sans';-inkscape-font-specification:DejaVuSans;writing-mode:lr-tb;fill:#000000;fill-opacity:1;fill-rule:nonzero;stroke:none"
       id="text62"><tspan
         x="0 5.5700002 11.93 18.280001 21.459999 25.360001 31.719999 38.080002 44.639999 47.419998 54.279999"
         y="0"
         id="tspan60">L1d (32KiB)</tspan></text>
</g><path
     d="M 26.666666,280 H 134.66666 V 240 H 26.666666 Z"
     style="fill:#ffffff;fill-opacity:1;fill-rule:nonzero;stroke:none;stroke-width:0.13333333"
     id="path64" /><path
     d="M 26.666666,280 H 134.66666 V 240 H 26.666666 Z"
     style="fill:none;stroke:#000000;stroke-width:1.33333325;stroke-linecap:butt;stroke-linejoin:miter;stroke-miterlimit:10;stroke-dasharray:none;stroke-opacity:1"
     id="path66" /><g
     id="g68"
     transform="matrix(1.3333333,0,0,-1.3333333,0,453.33333)"><text
       transform="matrix(1,0,0,-1,30,140)"
       style="font-variant:normal;font-weight:normal;font-size:10px;font-family:'DejaVu Sans';-inkscape-font-specification:DejaVuSans;writing-mode:lr-tb;fill:#000000;fill-opacity:1;fill-rule:nonzero;stroke:none"
       id="text72"><tspan
         x="0 5.5700002 11.93 14.71 17.889999 21.790001 28.15 34.509998 41.07 43.849998 50.709999"
         y="0"
         id="tspan70">L1i (32KiB)</tspan></text>
</g><path
     d="M 26.666666,426.66666 H 134.66666 V 293.33333 H 26.666666 Z"
     style="fill:#bebebe;fill-opacity:1;fill-rule:nonzero;stroke:none;stroke-width:0.13333333"
     id="path74" /><path
     d="M 26.666666,426.66666 H 134.66666 V 293.33333 H 26.666666 Z"
     style="fill:none;stroke:#000000;stroke-width:1.33333325;stroke-linecap:butt;stroke-linejoin:miter;stroke-miterlimit:10;stroke-dasharray:none;stroke-opacity:1"
     id="path76" /><g
     id="g78"
     transform="matrix(1.3333333,0,0,-1.3333333,0,453.33333)"><text
       transform="matrix(1,0,0,-1,30,100)"
       style="font-variant:normal;font-weight:normal;font-size:10px;font-family:'DejaVu Sans';-inkscape-font-specification:DejaVuSans;writing-mode:lr-tb;fill:#000000;fill-opacity:1;fill-rule:nonzero;stroke:none"
       id="text82"><tspan
         x="0 6.98 13.1 17.209999 23.360001 26.540001 32.57 40.950001"
         y="0"
         id="tspan80">Core P#0</tspan></text>
</g><path
     d="m 39.999999,373.33333 h 81.333331 v -40 H 39.999999 Z"
     style="fill:#ffffff;fill-opacity:1;fill-rule:nonzero;stroke:none;stroke-width:0.13333333"
     id="path84" /><path
     d="m 39.999999,373.33333 h 81.333331 v -40 H 39.999999 Z"
     style="fill:none;stroke:#000000;stroke-width:1.33333325;stroke-linecap:butt;stroke-linejoin:miter;stroke-miterlimit:10;stroke-dasharray:none;stroke-opacity:1"
     id="path86" /><g
     id="g88"
     transform="matrix(1.3333333,0,0,-1.3333333,0,453.33333)"><text
       transform="matrix(1,0,0,-1,43,70)"
       style="font-variant:normal;font-weight:normal;font-size:10px;font-family:'DejaVu Sans';-inkscape-font-specification:DejaVuSans;writing-mode:lr-tb;fill:#000000;fill-opacity:1;fill-rule:nonzero;stroke:none"
       id="text92"><tspan
         x="0 6.0300002 13.35 16.530001 22.559999 30.940001"
         y="0"
         id="tspan90">PU P#0</tspan></text>
</g><path
     d="m 39.999999,413.33333 h 81.333331 v -40 H 39.999999 Z"
     style="fill:#ffffff;fill-opacity:1;fill-rule:nonzero;stroke:none;stroke-width:0.13333333"
     id="path94" /><path
     d="m 39.999999,413.33333 h 81.333331 v -40 H 39.999999 Z"
     style="fill:none;stroke:#000000;stroke-width:1.33333325;stroke-linecap:butt;stroke-linejoin:miter;stroke-miterlimit:10;stroke-dasharray:none;stroke-opacity:1"
     id="path96" /><g
     id="g98"
     transform="matrix(1.3333333,0,0,-1.3333333,0,453.33333)"><text
       transform="matrix(1,0,0,-1,43,40)"
       style="font-variant:normal;font-weight:normal;font-size:10px;font-family:'DejaVu Sans';-inkscape-font-specification:DejaVuSans;writing-mode:lr-tb;fill:#000000;fill-opacity:1;fill-rule:nonzero;stroke:none"
       id="text102"><tspan
         x="0 6.0300002 13.35 16.530001 22.559999 30.940001"
         y="0"
         id="tspan100">PU P#6</tspan></text>
</g><path
     d="m 148,173.33334 h 107.99999 v -40 H 148 Z"
     style="fill:#ffffff;fill-opacity:1;fill-rule:nonzero;stroke:none;stroke-width:0.13333333"
     id="path104" /><path
     d="m 148,173.33334 h 107.99999 v -40 H 148 Z"
     style="fill:none;stroke:#000000;stroke-width:1.33333325;stroke-linecap:butt;stroke-linejoin:miter;stroke-miterlimit:10;stroke-dasharray:none;stroke-opacity:1"
     id="path106" /><g
     id="g108"
     transform="matrix(1.3333333,0,0,-1.3333333,0,453.33333)"><text
       transform="matrix(1,0,0,-1,121,220)"
       style="font-variant:normal;font-weight:normal;font-size:10px;font-family:'DejaVu Sans';-inkscape-font-specification:DejaVuSans;writing-mode:lr-tb;fill:#000000;fill-opacity:1;fill-rule:nonzero;stroke:none"
       id="text112"><tspan
         x="0 5.5700002 11.93 15.11 19.01 25.370001 31.73 38.09 44.650002 47.43 54.290001"
         y="0"
         id="tspan110">L2 (256KiB)</tspan></text>
</g><path
     d="m 148,226.66667 h 107.99999 v -40 H 148 Z"
     style="fill:#ffffff;fill-opacity:1;fill-rule:nonzero;stroke:none;stroke-width:0.13333333"
     id="path114" /><path
     d="m 148,226.66667 h 107.99999 v -40 H 148 Z"
     style="fill:none;stroke:#000000;stroke-width:1.33333325;stroke-linecap:butt;stroke-linejoin:miter;stroke-miterlimit:10;stroke-dasharray:none;stroke-opacity:1"
     id="path116" /><g
     id="g118"
     transform="matrix(1.3333333,0,0,-1.3333333,0,453.33333)"><text
       transform="matrix(1,0,0,-1,121,180)"
       style="font-variant:normal;font-weight:normal;font-size:10px;font-family:'DejaVu Sans';-inkscape-font-specification:DejaVuSans;writing-mode:lr-tb;fill:#000000;fill-opacity:1;fill-rule:nonzero;stroke:none"
       id="text122"><tspan
         x="0 5.5700002 11.93 18.280001 21.459999 25.360001 31.719999 38.080002 44.639999 47.419998 54.279999"
         y="0"
         id="tspan120">L1d (32KiB)</tspan></text>
</g><path
     d="M 148,280 H 255.99999 V 240 H 148 Z"
     style="fill:#ffffff;fill-opacity:1;fill-rule:nonzero;stroke:none;stroke-width:0.13333333"
     id="path124" /><path
     d="M 148,280 H 255.99999 V 240 H 148 Z"
     style="fill:none;stroke:#000000;stroke-width:1.33333325;stroke-linecap:butt;stroke-linejoin:miter;stroke-miterlimit:10;stroke-dasharray:none;stroke-opacity:1"
     id="path126" /><g
     id="g128"
     transform="matrix(1.3333333,0,0,-1.3333333,0,453.33333)"><text
       transform="matrix(1,0,0,-1,121,140)"
       style="font-variant:normal;font-weight:normal;font-size:10px;font-family:'DejaVu Sans';-inkscape-font-specification:DejaVuSans;writing-mode:lr-tb;fill:#000000;fill-opacity:1;fill-rule:nonzero;stroke:none"
       id="text132"><tspan
         x="0 5.5700002 11.93 14.71 17.889999 21.790001 28.15 34.509998 41.07 43.849998 50.709999"
         y="0"
         id="tspan130">L1i (32KiB)</tspan></text>
</g><path
     d="M 148,426.66666 H 255.99999 V 293.33333 H 148 Z"
     style="fill:#bebebe;fill-opacity:1;fill-rule:nonzero;stroke:none;stroke-width:0.13333333"
     id="path134" /><path
     d="M 148,426.66666 H 255.99999 V 293.33333 H 148 Z"
     style="fill:none;stroke:#000000;stroke-width:1.33333325;stroke-linecap:butt;stroke-linejoin:miter;stroke-miterlimit:10;stroke-dasharray:none;stroke-opacity:1"
     id="path136" /><g
     id="g138"
     transform="matrix(1.3333333,0,0,-1.3333333,0,453.33333)"><text
       transform="matrix(1,0,0,-1,121,100)"
       style="font-variant:normal;font-weight:normal;font-size:10px;font-family:'DejaVu Sans';-inkscape-font-specification:DejaVuSans;writing-mode:lr-tb;fill:#000000;fill-opacity:1;fill-rule:nonzero;stroke:none"
       id="text142"><tspan
         x="0 6.98 13.1 17.209999 23.360001 26.540001 32.57 40.950001"
         y="0"
         id="tspan140">Core P#1</tspan></text>
</g><path
     d="m 161.33333,373.33333 h 81.33333 v -40 h -81.33333 z"
     style="fill:#ffffff;fill-opacity:1;fill-rule:nonzero;stroke:none;stroke-width:0.13333333"
     id="path144" /><path
     d="m 161.33333,373.33333 h 81.33333 v -40 h -81.33333 z"
     style="fill:none;stroke:#000000;stroke-width:1.33333325;stroke-linecap:butt;stroke-linejoin:miter;stroke-miterlimit:10;stroke-dasharray:none;stroke-opacity:1"
     id="path146" /><g
     id="g148"
     transform="matrix(1.3333333,0,0,-1.3333333,0,453.33333)"><text
       transform="matrix(1,0,0,-1,134,70)"
       style="font-variant:normal;font-weight:normal;font-size:10px;font-family:'DejaVu Sans';-inkscape-font-specification:DejaVuSans;writing-mode:lr-tb;fill:#000000;fill-opacity:1;fill-rule:nonzero;stroke:none"
       id="text152"><tspan
         x="0 6.0300002 13.35 16.530001 22.559999 30.940001"
         y="0"
         id="tspan150">PU P#1</tspan></text>
</g><path
     d="m 161.33333,413.33333 h 81.33333 v -40 h -81.33333 z"
     style="fill:#ffffff;fill-opacity:1;fill-rule:nonzero;stroke:none;stroke-width:0.13333333"
     id="path154" /><path
     d="m 161.33333,413.33333 h 81.33333 v -40 h -81.33333 z"
     style="fill:none;stroke:#000000;stroke-width:1.33333325;stroke-linecap:butt;stroke-linejoin:miter;stroke-miterlimit:10;stroke-dasharray:none;stroke-opacity:1"
     id="path156" /><g
     id="g158"
     transform="matrix(1.3333333,0,0,-1.3333333,0,453.33333)"><text
       transform="matrix(1,0,0,-1,134,40)"
       style="font-variant:normal;font-weight:normal;font-size:10px;font-family:'DejaVu Sans';-inkscape-font-specification:DejaVuSans;writing-mode:lr-tb;fill:#000000;fill-opacity:1;fill-rule:nonzero;stroke:none"
       id="text162"><tspan
         x="0 6.0300002 13.35 16.530001 22.559999 30.940001"
         y="0"
         id="tspan160">PU P#7</tspan></text>
</g><path
     d="m 269.33333,173.33334 h 107.99999 v -40 H 269.33333 Z"
     style="fill:#ffffff;fill-opacity:1;fill-rule:nonzero;stroke:none;stroke-width:0.13333333"
     id="path164" /><path
     d="m 269.33333,173.33334 h 107.99999 v -40 H 269.33333 Z"
     style="fill:none;stroke:#000000;stroke-width:1.33333325;stroke-linecap:butt;stroke-linejoin:miter;stroke-miterlimit:10;stroke-dasharray:none;stroke-opacity:1"
     id="path166" /><g
     id="g168"
     transform="matrix(1.3333333,0,0,-1.3333333,0,453.33333)"><text
       transform="matrix(1,0,0,-1,212,220)"
       style="font-variant:normal;font-weight:normal;font-size:10px;font-family:'DejaVu Sans';-inkscape-font-specification:DejaVuSans;writing-mode:lr-tb;fill:#000000;fill-opacity:1;fill-rule:nonzero;stroke:none"
       id="text172"><tspan
         x="0 5.5700002 11.93 15.11 19.01 25.370001 31.73 38.09 44.650002 47.43 54.290001"
         y="0"
         id="tspan170">L2 (256KiB)</tspan></text>
</g><path
     d="m 269.33333,226.66667 h 107.99999 v -40 H 269.33333 Z"
     style="fill:#ffffff;fill-opacity:1;fill-rule:nonzero;stroke:none;stroke-width:0.13333333"
     id="path174" /><path
     d="m 269.33333,226.66667 h 107.99999 v -40 H 269.33333 Z"
     style="fill:none;stroke:#000000;stroke-width:1.33333325;stroke-linecap:butt;stroke-linejoin:miter;stroke-miterlimit:10;stroke-dasharray:none;stroke-opacity:1"
     id="path176" /><g
     id="g178"
     transform="matrix(1.3333333,0,0,-1.3333333,0,453.33333)"><text
       transform="matrix(1,0,0,-1,212,180)"
       style="font-variant:normal;font-weight:normal;font-size:10px;font-family:'DejaVu Sans';-inkscape-font-specification:DejaVuSans;writing-mode:lr-tb;fill:#000000;fill-opacity:1;fill-rule:nonzero;stroke:none"
       id="text182"><tspan
         x="0 5.5700002 11.93 18.280001 21.459999 25.360001 31.719999 38.080002 44.639999 47.419998 54.279999"
         y="0"
         id="tspan180">L1d (32KiB)</tspan></text>
</g><path
     d="M 269.33333,280 H 377.33332 V 240 H 269.33333 Z"
     style="fill:#ffffff;fill-opacity:1;fill-rule:nonzero;stroke:none;stroke-width:0.13333333"
     id="path184" /><path
     d="M 269.33333,280 H 377.33332 V 240 H 269.33333 Z"
     style="fill:none;stroke:#000000;stroke-width:1.33333325;stroke-linecap:butt;stroke-linejoin:miter;stroke-miterlimit:10;stroke-dasharray:none;stroke-opacity:1"
     id="path186" /><g
     id="g188"
     transform="matrix(1.3333333,0,0,-1.3333333,0,453.33333)"><text
       transform="matrix(1,0,0,-1,212,140)"
       style="font-variant:normal;font-weight:normal;font-size:10px;font-family:'DejaVu Sans';-inkscape-font-specification:DejaVuSans;writing-mode:lr-tb;fill:#000000;fill-opacity:1;fill-rule:nonzero;stroke:none"
       id="text192"><tspan
         x="0 5.5700002 11.93 14.71 17.889999 21.790001 28.15 34.509998 41.07 43.849998 50.709999"
         y="0"
         id="tspan190">L1i (32KiB)</tspan></text>
</g><path
     d="M 269.33333,426.66666 H 377.33332 V 293.33333 H 269.33333 Z"
     style="fill:#bebebe;fill-opacity:1;fill-rule:nonzero;stroke:none;stroke-width:0.13333333"
     id="path194" /><path
     d="M 269.33333,426.66666 H 377.33332 V 293.33333 H 269.33333 Z"
     style="fill:none;stroke:#000000;stroke-width:1.33333325;stroke-linecap:butt;stroke-linejoin:miter;stroke-miterlimit:10;stroke-dasharray:none;stroke-opacity:1"
     id="path196" /><g
     id="g198"
     transform="matrix(1.3333333,0,0,-1.3333333,0,453.33333)"><text
       transform="matrix(1,0,0,-1,212,100)"
       style="font-variant:normal;font-weight:normal;font-size:10px;font-family:'DejaVu Sans';-inkscape-font-specification:DejaVuSans;writing-mode:lr-tb;fill:#000000;fill-opacity:1;fill-rule:nonzero;stroke:none"
       id="text202"><tspan
         x="0 6.98 13.1 17.209999 23.360001 26.540001 32.57 40.950001"
         y="0"
         id="tspan200">Core P#2</tspan></text>
</g><path
     d="m 282.66666,373.33333 h 81.33333 v -40 h -81.33333 z"
     style="fill:#ffffff;fill-opacity:1;fill-rule:nonzero;stroke:none;stroke-width:0.13333333"
     id="path204" /><path
     d="m 282.66666,373.33333 h 81.33333 v -40 h -81.33333 z"
     style="fill:none;stroke:#000000;stroke-width:1.33333325;stroke-linecap:butt;stroke-linejoin:miter;stroke-miterlimit:10;stroke-dasharray:none;stroke-opacity:1"
     id="path206" /><g
     id="g208"
     transform="matrix(1.3333333,0,0,-1.3333333,0,453.33333)"><text
       transform="matrix(1,0,0,-1,225,70)"
       style="font-variant:normal;font-weight:normal;font-size:10px;font-family:'DejaVu Sans';-inkscape-font-specification:DejaVuSans;writing-mode:lr-tb;fill:#000000;fill-opacity:1;fill-rule:nonzero;stroke:none"
       id="text212"><tspan
         x="0 6.0300002 13.35 16.530001 22.559999 30.940001"
         y="0"
         id="tspan210">PU P#2</tspan></text>
</g><path
     d="m 282.66666,413.33333 h 81.33333 v -40 h -81.33333 z"
     style="fill:#ffffff;fill-opacity:1;fill-rule:nonzero;stroke:none;stroke-width:0.13333333"
     id="path214" /><path
     d="m 282.66666,413.33333 h 81.33333 v -40 h -81.33333 z"
     style="fill:none;stroke:#000000;stroke-width:1.33333325;stroke-linecap:butt;stroke-linejoin:miter;stroke-miterlimit:10;stroke-dasharray:none;stroke-opacity:1"
     id="path216" /><g
     id="g218"
     transform="matrix(1.3333333,0,0,-1.3333333,0,453.33333)"><text
       transform="matrix(1,0,0,-1,225,40)"
       style="font-variant:normal;font-weight:normal;font-size:10px;font-family:'DejaVu Sans';-inkscape-font-specification:DejaVuSans;writing-mode:lr-tb;fill:#000000;fill-opacity:1;fill-rule:nonzero;stroke:none"
       id="text222"><tspan
         x="0 6.0300002 13.35 16.530001 22.559999 30.940001"
         y="0"
         id="tspan220">PU P#8</tspan></text>
</g><path
     d="m 390.66666,173.33334 h 107.99999 v -40 H 390.66666 Z"
     style="fill:#ffffff;fill-opacity:1;fill-rule:nonzero;stroke:none;stroke-width:0.13333333"
     id="path224" /><path
     d="m 390.66666,173.33334 h 107.99999 v -40 H 390.66666 Z"
     style="fill:none;stroke:#000000;stroke-width:1.33333325;stroke-linecap:butt;stroke-linejoin:miter;stroke-miterlimit:10;stroke-dasharray:none;stroke-opacity:1"
     id="path226" /><g
     id="g228"
     transform="matrix(1.3333333,0,0,-1.3333333,0,453.33333)"><text
       transform="matrix(1,0,0,-1,303,220)"
       style="font-variant:normal;font-weight:normal;font-size:10px;font-family:'DejaVu Sans';-inkscape-font-specification:DejaVuSans;writing-mode:lr-tb;fill:#000000;fill-opacity:1;fill-rule:nonzero;stroke:none"
       id="text232"><tspan
         x="0 5.5700002 11.93 15.11 19.01 25.370001 31.73 38.09 44.650002 47.43 54.290001"
         y="0"
         id="tspan230">L2 (256KiB)</tspan></text>
</g><path
     d="m 390.66666,226.66667 h 107.99999 v -40 H 390.66666 Z"
     style="fill:#ffffff;fill-opacity:1;fill-rule:nonzero;stroke:none;stroke-width:0.13333333"
     id="path234" /><path
     d="m 390.66666,226.66667 h 107.99999 v -40 H 390.66666 Z"
     style="fill:none;stroke:#000000;stroke-width:1.33333325;stroke-linecap:butt;stroke-linejoin:miter;stroke-miterlimit:10;stroke-dasharray:none;stroke-opacity:1"
     id="path236" /><g
     id="g238"
     transform="matrix(1.3333333,0,0,-1.3333333,0,453.33333)"><text
       transform="matrix(1,0,0,-1,303,180)"
       style="font-variant:normal;font-weight:normal;font-size:10px;font-family:'DejaVu Sans';-inkscape-font-specification:DejaVuSans;writing-mode:lr-tb;fill:#000000;fill-opacity:1;fill-rule:nonzero;stroke:none"
       id="text242"><tspan
         x="0 5.5700002 11.93 18.280001 21.459999 25.360001 31.719999 38.080002 44.639999 47.419998 54.279999"
         y="0"
         id="tspan240">L1d (32KiB)</tspan></text>
</g><path
     d="M 390.66666,280 H 498.66665 V 240 H 390.66666 Z"
     style="fill:#ffffff;fill-opacity:1;fill-rule:nonzero;stroke:none;stroke-width:0.13333333"
     id="path244" /><path
     d="M 390.66666,280 H 498.66665 V 240 H 390.66666 Z"
     style="fill:none;stroke:#000000;stroke-width:1.33333325;stroke-linecap:butt;stroke-linejoin:miter;stroke-miterlimit:10;stroke-dasharray:none;stroke-opacity:1"
     id="path246" /><g
     id="g248"
     transform="matrix(1.3333333,0,0,-1.3333333,0,453.33333)"><text
       transform="matrix(1,0,0,-1,303,140)"
       style="font-variant:normal;font-weight:normal;font-size:10px;font-family:'DejaVu Sans';-inkscape-font-specification:DejaVuSans;writing-mode:lr-tb;fill:#000000;fill-opacity:1;fill-rule:nonzero;stroke:none"
       id="text252"><tspan
         x="0 5.5700002 11.93 14.71 17.889999 21.790001 28.15 34.509998 41.07 43.849998 50.709999"
         y="0"
         id="tspan250">L1i (32KiB)</tspan></text>
</g><path
     d="M 390.66666,426.66666 H 498.66665 V 293.33333 H 390.66666 Z"
     style="fill:#bebebe;fill-opacity:1;fill-rule:nonzero;stroke:none;stroke-width:0.13333333"
     id="path254" /><path
     d="M 390.66666,426.66666 H 498.66665 V 293.33333 H 390.66666 Z"
     style="fill:none;stroke:#000000;stroke-width:1.33333325;stroke-linecap:butt;stroke-linejoin:miter;stroke-miterlimit:10;stroke-dasharray:none;stroke-opacity:1"
     id="path256" /><g
     id="g258"
     transform="matrix(1.3333333,0,0,-1.3333333,0,453.33333)"><text
       transform="matrix(1,0,0,-1,303,100)"
       style="font-variant:normal;font-weight:normal;font-size:10px;font-family:'DejaVu Sans';-inkscape-font-specification:DejaVuSans;writing-mode:lr-tb;fill:#000000;fill-opacity:1;fill-rule:nonzero;stroke:none"
       id="text262"><tspan
         x="0 6.98 13.1 17.209999 23.360001 26.540001 32.57 40.950001"
         y="0"
         id="tspan260">Core P#3</tspan></text>
</g><path
     d="m 403.99999,373.33333 h 81.33333 v -40 h -81.33333 z"
     style="fill:#ffffff;fill-opacity:1;fill-rule:nonzero;stroke:none;stroke-width:0.13333333"
     id="path264" /><path
     d="m 403.99999,373.33333 h 81.33333 v -40 h -81.33333 z"
     style="fill:none;stroke:#000000;stroke-width:1.33333325;stroke-linecap:butt;stroke-linejoin:miter;stroke-miterlimit:10;stroke-dasharray:none;stroke-opacity:1"
     id="path266" /><g
     id="g268"
     transform="matrix(1.3333333,0,0,-1.3333333,0,453.33333)"><text
       transform="matrix(1,0,0,-1,316,70)"
       style="font-variant:normal;font-weight:normal;font-size:10px;font-family:'DejaVu Sans';-inkscape-font-specification:DejaVuSans;writing-mode:lr-tb;fill:#000000;fill-opacity:1;fill-rule:nonzero;stroke:none"
       id="text272"><tspan
         x="0 6.0300002 13.35 16.530001 22.559999 30.940001"
         y="0"
         id="tspan270">PU P#3</tspan></text>
</g><path
     d="m 403.99999,413.33333 h 81.33333 v -40 h -81.33333 z"
     style="fill:#ffffff;fill-opacity:1;fill-rule:nonzero;stroke:none;stroke-width:0.13333333"
     id="path274" /><path
     d="m 403.99999,413.33333 h 81.33333 v -40 h -81.33333 z"
     style="fill:none;stroke:#000000;stroke-width:1.33333325;stroke-linecap:butt;stroke-linejoin:miter;stroke-miterlimit:10;stroke-dasharray:none;stroke-opacity:1"
     id="path276" /><g
     id="g278"
     transform="matrix(1.3333333,0,0,-1.3333333,0,453.33333)"><text
       transform="matrix(1,0,0,-1,316,40)"
       style="font-variant:normal;font-weight:normal;font-size:10px;font-family:'DejaVu Sans';-inkscape-font-specification:DejaVuSans;writing-mode:lr-tb;fill:#000000;fill-opacity:1;fill-rule:nonzero;stroke:none"
       id="text282"><tspan
         x="0 6.0300002 13.35 16.530001 22.559999 30.940001"
         y="0"
         id="tspan280">PU P#9</tspan></text>
</g><path
     d="m 511.99999,173.33334 h 109.33333 v -40 H 511.99999 Z"
     style="fill:#ffffff;fill-opacity:1;fill-rule:nonzero;stroke:none;stroke-width:0.13333333"
     id="path284" /><path
     d="m 511.99999,173.33334 h 109.33333 v -40 H 511.99999 Z"
     style="fill:none;stroke:#000000;stroke-width:1.33333325;stroke-linecap:butt;stroke-linejoin:miter;stroke-miterlimit:10;stroke-dasharray:none;stroke-opacity:1"
     id="path286" /><g
     id="g288"
     transform="matrix(1.3333333,0,0,-1.3333333,0,453.33333)"><text
       transform="matrix(1,0,0,-1,394,220)"
       style="font-variant:normal;font-weight:normal;font-size:10px;font-family:'DejaVu Sans';-inkscape-font-specification:DejaVuSans;writing-mode:lr-tb;fill:#000000;fill-opacity:1;fill-rule:nonzero;stroke:none"
       id="text292"><tspan
         x="0 5.5700002 11.93 15.11 19.01 25.370001 31.73 38.09 44.650002 47.43 54.290001"
         y="0"
         id="tspan290">L2 (256KiB)</tspan></text>
</g><path
     d="m 511.99999,226.66667 h 109.33333 v -40 H 511.99999 Z"
     style="fill:#ffffff;fill-opacity:1;fill-rule:nonzero;stroke:none;stroke-width:0.13333333"
     id="path294" /><path
     d="m 511.99999,226.66667 h 109.33333 v -40 H 511.99999 Z"
     style="fill:none;stroke:#000000;stroke-width:1.33333325;stroke-linecap:butt;stroke-linejoin:miter;stroke-miterlimit:10;stroke-dasharray:none;stroke-opacity:1"
     id="path296" /><g
     id="g298"
     transform="matrix(1.3333333,0,0,-1.3333333,0,453.33333)"><text
       transform="matrix(1,0,0,-1,394,180)"
       style="font-variant:normal;font-weight:normal;font-size:10px;font-family:'DejaVu Sans';-inkscape-font-specification:DejaVuSans;writing-mode:lr-tb;fill:#000000;fill-opacity:1;fill-rule:nonzero;stroke:none"
       id="text302"><tspan
         x="0 5.5700002 11.93 18.280001 21.459999 25.360001 31.719999 38.080002 44.639999 47.419998 54.279999"
         y="0"
         id="tspan300">L1d (32KiB)</tspan></text>
</g><path
     d="M 511.99999,280 H 621.33332 V 240 H 511.99999 Z"
     style="fill:#ffffff;fill-opacity:1;fill-rule:nonzero;stroke:none;stroke-width:0.13333333"
     id="path304" /><path
     d="M 511.99999,280 H 621.33332 V 240 H 511.99999 Z"
     style="fill:none;stroke:#000000;stroke-width:1.33333325;stroke-linecap:butt;stroke-linejoin:miter;stroke-miterlimit:10;stroke-dasharray:none;stroke-opacity:1"
     id="path306" /><g
     id="g308"
     transform="matrix(1.3333333,0,0,-1.3333333,0,453.33333)"><text
       transform="matrix(1,0,0,-1,394,140)"
       style="font-variant:normal;font-weight:normal;font-size:10px;font-family:'DejaVu Sans';-inkscape-font-specification:DejaVuSans;writing-mode:lr-tb;fill:#000000;fill-opacity:1;fill-rule:nonzero;stroke:none"
       id="text312"><tspan
         x="0 5.5700002 11.93 14.71 17.889999 21.790001 28.15 34.509998 41.07 43.849998 50.709999"
         y="0"
         id="tspan310">L1i (32KiB)</tspan></text>
</g><path
     d="M 511.99999,426.66666 H 621.33332 V 293.33333 H 511.99999 Z"
     style="fill:#bebebe;fill-opacity:1;fill-rule:nonzero;stroke:none;stroke-width:0.13333333"
     id="path314" /><path
     d="M 511.99999,426.66666 H 621.33332 V 293.33333 H 511.99999 Z"
     style="fill:none;stroke:#000000;stroke-width:1.33333325;stroke-linecap:butt;stroke-linejoin:miter;stroke-miterlimit:10;stroke-dasharray:none;stroke-opacity:1"
     id="path316" /><g
     id="g318"
     transform="matrix(1.3333333,0,0,-1.3333333,0,453.33333)"><text
       transform="matrix(1,0,0,-1,394,100)"
       style="font-variant:normal;font-weight:normal;font-size:10px;font-family:'DejaVu Sans';-inkscape-font-specification:DejaVuSans;writing-mode:lr-tb;fill:#000000;fill-opacity:1;fill-rule:nonzero;stroke:none"
       id="text322"><tspan
         x="0 6.98 13.1 17.209999 23.360001 26.540001 32.57 40.950001"
         y="0"
         id="tspan320">Core P#4</tspan></text>
</g><path
     d="m 525.33332,373.33333 h 81.33333 v -40 h -81.33333 z"
     style="fill:#ffffff;fill-opacity:1;fill-rule:nonzero;stroke:none;stroke-width:0.13333333"
     id="path324" /><path
     d="m 525.33332,373.33333 h 81.33333 v -40 h -81.33333 z"
     style="fill:none;stroke:#000000;stroke-width:1.33333325;stroke-linecap:butt;stroke-linejoin:miter;stroke-miterlimit:10;stroke-dasharray:none;stroke-opacity:1"
     id="path326" /><g
     id="g328"
     transform="matrix(1.3333333,0,0,-1.3333333,0,453.33333)"><text
       transform="matrix(1,0,0,-1,407,70)"
       style="font-variant:normal;font-weight:normal;font-size:10px;font-family:'DejaVu Sans';-inkscape-font-specification:DejaVuSans;writing-mode:lr-tb;fill:#000000;fill-opacity:1;fill-rule:nonzero;stroke:none"
       id="text332"><tspan
         x="0 6.0300002 13.35 16.530001 22.559999 30.940001"
         y="0"
         id="tspan330">PU P#4</tspan></text>
</g><path
     d="m 525.33332,413.33333 h 81.33333 v -40 h -81.33333 z"
     style="fill:#ffffff;fill-opacity:1;fill-rule:nonzero;stroke:none;stroke-width:0.13225369"
     id="path334" /><path
     d="m 525.33332,413.33333 h 81.33333 v -40 h -81.33333 z"
     style="fill:none;stroke:#000000;stroke-width:1.32253683;stroke-linecap:butt;stroke-linejoin:miter;stroke-miterlimit:10;stroke-dasharray:none;stroke-opacity:1"
     id="path336" /><g
     id="g338"
     transform="matrix(1.3333333,0,0,-1.3333333,0,453.33333)"><text
       transform="matrix(1,0,0,-1,404,40)"
       style="font-variant:normal;font-weight:normal;font-size:10px;font-family:'DejaVu Sans';-inkscape-font-specification:DejaVuSans;writing-mode:lr-tb;fill:#000000;fill-opacity:1;fill-rule:nonzero;stroke:none"
       id="text342"><tspan
         x="0 6.0300002 13.35 16.530001 22.559999 30.940001 37.299999"
         y="0"
         id="tspan340">PU P#10</tspan></text>
</g><path
     d="m 634.66665,173.33334 h 108 v -40 h -108 z"
     style="fill:#ffffff;fill-opacity:1;fill-rule:nonzero;stroke:none;stroke-width:0.13333333"
     id="path344" /><path
     d="m 634.66665,173.33334 h 108 v -40 h -108 z"
     style="fill:none;stroke:#000000;stroke-width:1.33333325;stroke-linecap:butt;stroke-linejoin:miter;stroke-miterlimit:10;stroke-dasharray:none;stroke-opacity:1"
     id="path346" /><g
     id="g348"
     transform="matrix(1.3333333,0,0,-1.3333333,0,453.33333)"><text
       transform="matrix(1,0,0,-1,486,220)"
       style="font-variant:normal;font-weight:normal;font-size:10px;font-family:'DejaVu Sans';-inkscape-font-specification:DejaVuSans;writing-mode:lr-tb;fill:#000000;fill-opacity:1;fill-rule:nonzero;stroke:none"
       id="text352"><tspan
         x="0 5.5700002 11.93 15.11 19.01 25.370001 31.73 38.09 44.650002 47.43 54.290001"
         y="0"
         id="tspan350">L2 (256KiB)</tspan></text>
</g><path
     d="m 634.66665,226.66667 h 108 v -40 h -108 z"
     style="fill:#ffffff;fill-opacity:1;fill-rule:nonzero;stroke:none;stroke-width:0.13333333"
     id="path354" /><path
     d="m 634.66665,226.66667 h 108 v -40 h -108 z"
     style="fill:none;stroke:#000000;stroke-width:1.33333325;stroke-linecap:butt;stroke-linejoin:miter;stroke-miterlimit:10;stroke-dasharray:none;stroke-opacity:1"
     id="path356" /><g
     id="g358"
     transform="matrix(1.3333333,0,0,-1.3333333,0,453.33333)"><text
       transform="matrix(1,0,0,-1,486,180)"
       style="font-variant:normal;font-weight:normal;font-size:10px;font-family:'DejaVu Sans';-inkscape-font-specification:DejaVuSans;writing-mode:lr-tb;fill:#000000;fill-opacity:1;fill-rule:nonzero;stroke:none"
       id="text362"><tspan
         x="0 5.5700002 11.93 18.280001 21.459999 25.360001 31.719999 38.080002 44.639999 47.419998 54.279999"
         y="0"
         id="tspan360">L1d (32KiB)</tspan></text>
</g><path
     d="m 634.66665,280 h 108 v -40 h -108 z"
     style="fill:#ffffff;fill-opacity:1;fill-rule:nonzero;stroke:none;stroke-width:0.13333333"
     id="path364" /><path
     d="m 634.66665,280 h 108 v -40 h -108 z"
     style="fill:none;stroke:#000000;stroke-width:1.33333325;stroke-linecap:butt;stroke-linejoin:miter;stroke-miterlimit:10;stroke-dasharray:none;stroke-opacity:1"
     id="path366" /><g
     id="g368"
     transform="matrix(1.3333333,0,0,-1.3333333,0,453.33333)"><text
       transform="matrix(1,0,0,-1,486,140)"
       style="font-variant:normal;font-weight:normal;font-size:10px;font-family:'DejaVu Sans';-inkscape-font-specification:DejaVuSans;writing-mode:lr-tb;fill:#000000;fill-opacity:1;fill-rule:nonzero;stroke:none"
       id="text372"><tspan
         x="0 5.5700002 11.93 14.71 17.889999 21.790001 28.15 34.509998 41.07 43.849998 50.709999"
         y="0"
         id="tspan370">L1i (32KiB)</tspan></text>
</g><path
     d="m 634.66665,426.66666 h 108 V 293.33333 h -108 z"
     style="fill:#bebebe;fill-opacity:1;fill-rule:nonzero;stroke:none;stroke-width:0.13333333"
     id="path374" /><path
     d="m 634.66665,426.66666 h 108 V 293.33333 h -108 z"
     style="fill:none;stroke:#000000;stroke-width:1.33333325;stroke-linecap:butt;stroke-linejoin:miter;stroke-miterlimit:10;stroke-dasharray:none;stroke-opacity:1"
     id="path376" /><g
     id="g378"
     transform="matrix(1.3333333,0,0,-1.3333333,0,453.33333)"><text
       transform="matrix(1,0,0,-1,486,100)"
       style="font-variant:normal;font-weight:normal;font-size:10px;font-family:'DejaVu Sans';-inkscape-font-specification:DejaVuSans;writing-mode:lr-tb;fill:#000000;fill-opacity:1;fill-rule:nonzero;stroke:none"
       id="text382"><tspan
         x="0 6.98 13.1 17.209999 23.360001 26.540001 32.57 40.950001"
         y="0"
         id="tspan380">Core P#5</tspan></text>
</g><path
     d="m 647.99998,373.33333 h 81.33334 v -40 h -81.33334 z"
     style="fill:#ffffff;fill-opacity:1;fill-rule:nonzero;stroke:none;stroke-width:0.13333333"
     id="path384" /><path
     d="m 647.99998,373.33333 h 81.33334 v -40 h -81.33334 z"
     style="fill:none;stroke:#000000;stroke-width:1.33333325;stroke-linecap:butt;stroke-linejoin:miter;stroke-miterlimit:10;stroke-dasharray:none;stroke-opacity:1"
     id="path386" /><g
     id="g388"
     transform="matrix(1.3333333,0,0,-1.3333333,0,453.33333)"><text
       transform="matrix(1,0,0,-1,499,70)"
       style="font-variant:normal;font-weight:normal;font-size:10px;font-family:'DejaVu Sans';-inkscape-font-specification:DejaVuSans;writing-mode:lr-tb;fill:#000000;fill-opacity:1;fill-rule:nonzero;stroke:none"
       id="text392"><tspan
         x="0 6.0300002 13.35 16.530001 22.559999 30.940001"
         y="0"
         id="tspan390">PU P#5</tspan></text>
</g><path
     d="m 647.99998,413.33333 h 81.33334 v -40 h -81.33334 z"
     style="fill:#ffffff;fill-opacity:1;fill-rule:nonzero;stroke:none;stroke-width:0.13333333"
     id="path394" /><path
     d="m 647.99998,413.33333 h 81.33334 v -40 h -81.33334 z"
     style="fill:none;stroke:#000000;stroke-width:1.33333325;stroke-linecap:butt;stroke-linejoin:miter;stroke-miterlimit:10;stroke-dasharray:none;stroke-opacity:1"
     id="path396" /><g
     id="g398"
     transform="matrix(1.3333333,0,0,-1.3333333,0,453.33333)"><text
       transform="matrix(1,0,0,-1,496,40)"
       style="font-variant:normal;font-weight:normal;font-size:10px;font-family:'DejaVu Sans';-inkscape-font-specification:DejaVuSans;writing-mode:lr-tb;fill:#000000;fill-opacity:1;fill-rule:nonzero;stroke:none"
       id="text402"><tspan
         x="0 6.0300002 13.35 16.530001 22.559999 30.940001 37.299999"
         y="0"
         id="tspan400">PU P#11</tspan></text>
</g></svg>